%TF.GenerationSoftware,KiCad,Pcbnew,(5.1.8)-1*%
%TF.CreationDate,2021-11-13T22:26:41+08:00*%
%TF.ProjectId,wifiaudiorx,77696669-6175-4646-996f-72782e6b6963,rev?*%
%TF.SameCoordinates,Original*%
%TF.FileFunction,Legend,Bot*%
%TF.FilePolarity,Positive*%
%FSLAX46Y46*%
G04 Gerber Fmt 4.6, Leading zero omitted, Abs format (unit mm)*
G04 Created by KiCad (PCBNEW (5.1.8)-1) date 2021-11-13 22:26:41*
%MOMM*%
%LPD*%
G01*
G04 APERTURE LIST*
%ADD10C,0.150000*%
G04 APERTURE END LIST*
D10*
X123028571Y-115457142D02*
X122742857Y-115552380D01*
X122647619Y-115647619D01*
X122552380Y-115838095D01*
X122552380Y-116123809D01*
X122647619Y-116314285D01*
X122742857Y-116409523D01*
X122933333Y-116504761D01*
X123695238Y-116504761D01*
X123695238Y-114504761D01*
X123028571Y-114504761D01*
X122838095Y-114600000D01*
X122742857Y-114695238D01*
X122647619Y-114885714D01*
X122647619Y-115076190D01*
X122742857Y-115266666D01*
X122838095Y-115361904D01*
X123028571Y-115457142D01*
X123695238Y-115457142D01*
X120742857Y-116504761D02*
X121695238Y-116504761D01*
X121695238Y-114504761D01*
X119219047Y-116504761D02*
X119219047Y-115457142D01*
X119314285Y-115266666D01*
X119504761Y-115171428D01*
X119885714Y-115171428D01*
X120076190Y-115266666D01*
X119219047Y-116409523D02*
X119409523Y-116504761D01*
X119885714Y-116504761D01*
X120076190Y-116409523D01*
X120171428Y-116219047D01*
X120171428Y-116028571D01*
X120076190Y-115838095D01*
X119885714Y-115742857D01*
X119409523Y-115742857D01*
X119219047Y-115647619D01*
X118266666Y-116504761D02*
X118266666Y-114504761D01*
X118266666Y-115266666D02*
X118076190Y-115171428D01*
X117695238Y-115171428D01*
X117504761Y-115266666D01*
X117409523Y-115361904D01*
X117314285Y-115552380D01*
X117314285Y-116123809D01*
X117409523Y-116314285D01*
X117504761Y-116409523D01*
X117695238Y-116504761D01*
X118076190Y-116504761D01*
X118266666Y-116409523D01*
X116647619Y-114504761D02*
X116171428Y-116504761D01*
X115790476Y-115076190D01*
X115409523Y-116504761D01*
X114933333Y-114504761D01*
X114171428Y-116504761D02*
X114171428Y-115171428D01*
X114171428Y-114504761D02*
X114266666Y-114600000D01*
X114171428Y-114695238D01*
X114076190Y-114600000D01*
X114171428Y-114504761D01*
X114171428Y-114695238D01*
X112552380Y-115457142D02*
X113219047Y-115457142D01*
X113219047Y-116504761D02*
X113219047Y-114504761D01*
X112266666Y-114504761D01*
X111504761Y-116504761D02*
X111504761Y-115171428D01*
X111504761Y-114504761D02*
X111600000Y-114600000D01*
X111504761Y-114695238D01*
X111409523Y-114600000D01*
X111504761Y-114504761D01*
X111504761Y-114695238D01*
X110647619Y-115933333D02*
X109695238Y-115933333D01*
X110838095Y-116504761D02*
X110171428Y-114504761D01*
X109504761Y-116504761D01*
X107980952Y-115171428D02*
X107980952Y-116504761D01*
X108838095Y-115171428D02*
X108838095Y-116219047D01*
X108742857Y-116409523D01*
X108552380Y-116504761D01*
X108266666Y-116504761D01*
X108076190Y-116409523D01*
X107980952Y-116314285D01*
X106171428Y-116504761D02*
X106171428Y-114504761D01*
X106171428Y-116409523D02*
X106361904Y-116504761D01*
X106742857Y-116504761D01*
X106933333Y-116409523D01*
X107028571Y-116314285D01*
X107123809Y-116123809D01*
X107123809Y-115552380D01*
X107028571Y-115361904D01*
X106933333Y-115266666D01*
X106742857Y-115171428D01*
X106361904Y-115171428D01*
X106171428Y-115266666D01*
X105219047Y-116504761D02*
X105219047Y-115171428D01*
X105219047Y-114504761D02*
X105314285Y-114600000D01*
X105219047Y-114695238D01*
X105123809Y-114600000D01*
X105219047Y-114504761D01*
X105219047Y-114695238D01*
X103980952Y-116504761D02*
X104171428Y-116409523D01*
X104266666Y-116314285D01*
X104361904Y-116123809D01*
X104361904Y-115552380D01*
X104266666Y-115361904D01*
X104171428Y-115266666D01*
X103980952Y-115171428D01*
X103695238Y-115171428D01*
X103504761Y-115266666D01*
X103409523Y-115361904D01*
X103314285Y-115552380D01*
X103314285Y-116123809D01*
X103409523Y-116314285D01*
X103504761Y-116409523D01*
X103695238Y-116504761D01*
X103980952Y-116504761D01*
X101314285Y-116504761D02*
X101980952Y-115552380D01*
X102457142Y-116504761D02*
X102457142Y-114504761D01*
X101695238Y-114504761D01*
X101504761Y-114600000D01*
X101409523Y-114695238D01*
X101314285Y-114885714D01*
X101314285Y-115171428D01*
X101409523Y-115361904D01*
X101504761Y-115457142D01*
X101695238Y-115552380D01*
X102457142Y-115552380D01*
X100647619Y-114504761D02*
X99314285Y-116504761D01*
X99314285Y-114504761D02*
X100647619Y-116504761D01*
X126752380Y-103038095D02*
X126752380Y-103609523D01*
X127752380Y-103323809D02*
X126752380Y-103323809D01*
X126752380Y-103847619D02*
X127752380Y-104514285D01*
X126752380Y-104514285D02*
X127752380Y-103847619D01*
X125852380Y-103633333D02*
X125376190Y-103300000D01*
X125852380Y-103061904D02*
X124852380Y-103061904D01*
X124852380Y-103442857D01*
X124900000Y-103538095D01*
X124947619Y-103585714D01*
X125042857Y-103633333D01*
X125185714Y-103633333D01*
X125280952Y-103585714D01*
X125328571Y-103538095D01*
X125376190Y-103442857D01*
X125376190Y-103061904D01*
X124852380Y-103966666D02*
X125852380Y-104633333D01*
X124852380Y-104633333D02*
X125852380Y-103966666D01*
X123852380Y-103000000D02*
X122852380Y-103000000D01*
X122852380Y-103666666D02*
X122852380Y-103857142D01*
X122900000Y-103952380D01*
X122995238Y-104047619D01*
X123185714Y-104095238D01*
X123519047Y-104095238D01*
X123709523Y-104047619D01*
X123804761Y-103952380D01*
X123852380Y-103857142D01*
X123852380Y-103666666D01*
X123804761Y-103571428D01*
X123709523Y-103476190D01*
X123519047Y-103428571D01*
X123185714Y-103428571D01*
X122995238Y-103476190D01*
X122900000Y-103571428D01*
X122852380Y-103666666D01*
X122852380Y-104714285D02*
X122852380Y-104809523D01*
X122900000Y-104904761D01*
X122947619Y-104952380D01*
X123042857Y-105000000D01*
X123233333Y-105047619D01*
X123471428Y-105047619D01*
X123661904Y-105000000D01*
X123757142Y-104952380D01*
X123804761Y-104904761D01*
X123852380Y-104809523D01*
X123852380Y-104714285D01*
X123804761Y-104619047D01*
X123757142Y-104571428D01*
X123661904Y-104523809D01*
X123471428Y-104476190D01*
X123233333Y-104476190D01*
X123042857Y-104523809D01*
X122947619Y-104571428D01*
X122900000Y-104619047D01*
X122852380Y-104714285D01*
X121028571Y-103061904D02*
X121028571Y-103395238D01*
X121552380Y-103538095D02*
X121552380Y-103061904D01*
X120552380Y-103061904D01*
X120552380Y-103538095D01*
X121552380Y-103966666D02*
X120552380Y-103966666D01*
X121552380Y-104538095D01*
X120552380Y-104538095D01*
X118700000Y-103538095D02*
X118652380Y-103442857D01*
X118652380Y-103300000D01*
X118700000Y-103157142D01*
X118795238Y-103061904D01*
X118890476Y-103014285D01*
X119080952Y-102966666D01*
X119223809Y-102966666D01*
X119414285Y-103014285D01*
X119509523Y-103061904D01*
X119604761Y-103157142D01*
X119652380Y-103300000D01*
X119652380Y-103395238D01*
X119604761Y-103538095D01*
X119557142Y-103585714D01*
X119223809Y-103585714D01*
X119223809Y-103395238D01*
X119652380Y-104014285D02*
X118652380Y-104014285D01*
X119652380Y-104585714D01*
X118652380Y-104585714D01*
X119652380Y-105061904D02*
X118652380Y-105061904D01*
X118652380Y-105300000D01*
X118700000Y-105442857D01*
X118795238Y-105538095D01*
X118890476Y-105585714D01*
X119080952Y-105633333D01*
X119223809Y-105633333D01*
X119414285Y-105585714D01*
X119509523Y-105538095D01*
X119604761Y-105442857D01*
X119652380Y-105300000D01*
X119652380Y-105061904D01*
X116552380Y-104009523D02*
X116552380Y-103533333D01*
X117028571Y-103485714D01*
X116980952Y-103533333D01*
X116933333Y-103628571D01*
X116933333Y-103866666D01*
X116980952Y-103961904D01*
X117028571Y-104009523D01*
X117123809Y-104057142D01*
X117361904Y-104057142D01*
X117457142Y-104009523D01*
X117504761Y-103961904D01*
X117552380Y-103866666D01*
X117552380Y-103628571D01*
X117504761Y-103533333D01*
X117457142Y-103485714D01*
X116552380Y-104342857D02*
X117552380Y-104676190D01*
X116552380Y-105009523D01*
M02*
