%TF.GenerationSoftware,KiCad,Pcbnew,(5.1.8)-1*%
%TF.CreationDate,2021-11-13T22:26:41+08:00*%
%TF.ProjectId,wifiaudiorx,77696669-6175-4646-996f-72782e6b6963,rev?*%
%TF.SameCoordinates,Original*%
%TF.FileFunction,Soldermask,Top*%
%TF.FilePolarity,Negative*%
%FSLAX46Y46*%
G04 Gerber Fmt 4.6, Leading zero omitted, Abs format (unit mm)*
G04 Created by KiCad (PCBNEW (5.1.8)-1) date 2021-11-13 22:26:41*
%MOMM*%
%LPD*%
G01*
G04 APERTURE LIST*
%ADD10C,1.500000*%
%ADD11R,2.500000X1.200000*%
%ADD12O,1.350000X1.350000*%
%ADD13R,1.350000X1.350000*%
%ADD14R,0.900000X1.700000*%
%ADD15R,2.500000X2.500000*%
%ADD16R,1.450000X0.600000*%
%ADD17R,1.450000X0.300000*%
%ADD18O,2.100000X1.000000*%
%ADD19C,0.650000*%
%ADD20O,1.600000X1.000000*%
%ADD21R,1.000000X0.800000*%
%ADD22R,0.700000X1.500000*%
%ADD23C,0.900000*%
%ADD24R,2.000000X0.900000*%
%ADD25R,0.900000X2.000000*%
%ADD26R,5.000000X5.000000*%
%ADD27R,1.500000X2.000000*%
%ADD28R,3.800000X2.000000*%
%ADD29R,2.290000X3.000000*%
G04 APERTURE END LIST*
D10*
%TO.C,J1*%
X95100000Y-119475000D03*
X95100000Y-126475000D03*
D11*
X91850000Y-124875000D03*
X91850000Y-121875000D03*
X91850000Y-117875000D03*
X98350000Y-116775000D03*
%TD*%
%TO.C,R19*%
G36*
G01*
X106860000Y-113415000D02*
X106860000Y-113785000D01*
G75*
G02*
X106725000Y-113920000I-135000J0D01*
G01*
X106455000Y-113920000D01*
G75*
G02*
X106320000Y-113785000I0J135000D01*
G01*
X106320000Y-113415000D01*
G75*
G02*
X106455000Y-113280000I135000J0D01*
G01*
X106725000Y-113280000D01*
G75*
G02*
X106860000Y-113415000I0J-135000D01*
G01*
G37*
G36*
G01*
X107880000Y-113415000D02*
X107880000Y-113785000D01*
G75*
G02*
X107745000Y-113920000I-135000J0D01*
G01*
X107475000Y-113920000D01*
G75*
G02*
X107340000Y-113785000I0J135000D01*
G01*
X107340000Y-113415000D01*
G75*
G02*
X107475000Y-113280000I135000J0D01*
G01*
X107745000Y-113280000D01*
G75*
G02*
X107880000Y-113415000I0J-135000D01*
G01*
G37*
%TD*%
%TO.C,R14*%
G36*
G01*
X99800000Y-104849999D02*
X99800000Y-105750001D01*
G75*
G02*
X99550001Y-106000000I-249999J0D01*
G01*
X99024999Y-106000000D01*
G75*
G02*
X98775000Y-105750001I0J249999D01*
G01*
X98775000Y-104849999D01*
G75*
G02*
X99024999Y-104600000I249999J0D01*
G01*
X99550001Y-104600000D01*
G75*
G02*
X99800000Y-104849999I0J-249999D01*
G01*
G37*
G36*
G01*
X101625000Y-104849999D02*
X101625000Y-105750001D01*
G75*
G02*
X101375001Y-106000000I-249999J0D01*
G01*
X100849999Y-106000000D01*
G75*
G02*
X100600000Y-105750001I0J249999D01*
G01*
X100600000Y-104849999D01*
G75*
G02*
X100849999Y-104600000I249999J0D01*
G01*
X101375001Y-104600000D01*
G75*
G02*
X101625000Y-104849999I0J-249999D01*
G01*
G37*
%TD*%
%TO.C,R12*%
G36*
G01*
X93760000Y-110115000D02*
X93760000Y-110485000D01*
G75*
G02*
X93625000Y-110620000I-135000J0D01*
G01*
X93355000Y-110620000D01*
G75*
G02*
X93220000Y-110485000I0J135000D01*
G01*
X93220000Y-110115000D01*
G75*
G02*
X93355000Y-109980000I135000J0D01*
G01*
X93625000Y-109980000D01*
G75*
G02*
X93760000Y-110115000I0J-135000D01*
G01*
G37*
G36*
G01*
X94780000Y-110115000D02*
X94780000Y-110485000D01*
G75*
G02*
X94645000Y-110620000I-135000J0D01*
G01*
X94375000Y-110620000D01*
G75*
G02*
X94240000Y-110485000I0J135000D01*
G01*
X94240000Y-110115000D01*
G75*
G02*
X94375000Y-109980000I135000J0D01*
G01*
X94645000Y-109980000D01*
G75*
G02*
X94780000Y-110115000I0J-135000D01*
G01*
G37*
%TD*%
%TO.C,U2*%
G36*
G01*
X103625000Y-107375000D02*
X103625000Y-107175000D01*
G75*
G02*
X103725000Y-107075000I100000J0D01*
G01*
X105000000Y-107075000D01*
G75*
G02*
X105100000Y-107175000I0J-100000D01*
G01*
X105100000Y-107375000D01*
G75*
G02*
X105000000Y-107475000I-100000J0D01*
G01*
X103725000Y-107475000D01*
G75*
G02*
X103625000Y-107375000I0J100000D01*
G01*
G37*
G36*
G01*
X103625000Y-108025000D02*
X103625000Y-107825000D01*
G75*
G02*
X103725000Y-107725000I100000J0D01*
G01*
X105000000Y-107725000D01*
G75*
G02*
X105100000Y-107825000I0J-100000D01*
G01*
X105100000Y-108025000D01*
G75*
G02*
X105000000Y-108125000I-100000J0D01*
G01*
X103725000Y-108125000D01*
G75*
G02*
X103625000Y-108025000I0J100000D01*
G01*
G37*
G36*
G01*
X103625000Y-108675000D02*
X103625000Y-108475000D01*
G75*
G02*
X103725000Y-108375000I100000J0D01*
G01*
X105000000Y-108375000D01*
G75*
G02*
X105100000Y-108475000I0J-100000D01*
G01*
X105100000Y-108675000D01*
G75*
G02*
X105000000Y-108775000I-100000J0D01*
G01*
X103725000Y-108775000D01*
G75*
G02*
X103625000Y-108675000I0J100000D01*
G01*
G37*
G36*
G01*
X103625000Y-109325000D02*
X103625000Y-109125000D01*
G75*
G02*
X103725000Y-109025000I100000J0D01*
G01*
X105000000Y-109025000D01*
G75*
G02*
X105100000Y-109125000I0J-100000D01*
G01*
X105100000Y-109325000D01*
G75*
G02*
X105000000Y-109425000I-100000J0D01*
G01*
X103725000Y-109425000D01*
G75*
G02*
X103625000Y-109325000I0J100000D01*
G01*
G37*
G36*
G01*
X103625000Y-109975000D02*
X103625000Y-109775000D01*
G75*
G02*
X103725000Y-109675000I100000J0D01*
G01*
X105000000Y-109675000D01*
G75*
G02*
X105100000Y-109775000I0J-100000D01*
G01*
X105100000Y-109975000D01*
G75*
G02*
X105000000Y-110075000I-100000J0D01*
G01*
X103725000Y-110075000D01*
G75*
G02*
X103625000Y-109975000I0J100000D01*
G01*
G37*
G36*
G01*
X103625000Y-110625000D02*
X103625000Y-110425000D01*
G75*
G02*
X103725000Y-110325000I100000J0D01*
G01*
X105000000Y-110325000D01*
G75*
G02*
X105100000Y-110425000I0J-100000D01*
G01*
X105100000Y-110625000D01*
G75*
G02*
X105000000Y-110725000I-100000J0D01*
G01*
X103725000Y-110725000D01*
G75*
G02*
X103625000Y-110625000I0J100000D01*
G01*
G37*
G36*
G01*
X103625000Y-111275000D02*
X103625000Y-111075000D01*
G75*
G02*
X103725000Y-110975000I100000J0D01*
G01*
X105000000Y-110975000D01*
G75*
G02*
X105100000Y-111075000I0J-100000D01*
G01*
X105100000Y-111275000D01*
G75*
G02*
X105000000Y-111375000I-100000J0D01*
G01*
X103725000Y-111375000D01*
G75*
G02*
X103625000Y-111275000I0J100000D01*
G01*
G37*
G36*
G01*
X103625000Y-111925000D02*
X103625000Y-111725000D01*
G75*
G02*
X103725000Y-111625000I100000J0D01*
G01*
X105000000Y-111625000D01*
G75*
G02*
X105100000Y-111725000I0J-100000D01*
G01*
X105100000Y-111925000D01*
G75*
G02*
X105000000Y-112025000I-100000J0D01*
G01*
X103725000Y-112025000D01*
G75*
G02*
X103625000Y-111925000I0J100000D01*
G01*
G37*
G36*
G01*
X103625000Y-112575000D02*
X103625000Y-112375000D01*
G75*
G02*
X103725000Y-112275000I100000J0D01*
G01*
X105000000Y-112275000D01*
G75*
G02*
X105100000Y-112375000I0J-100000D01*
G01*
X105100000Y-112575000D01*
G75*
G02*
X105000000Y-112675000I-100000J0D01*
G01*
X103725000Y-112675000D01*
G75*
G02*
X103625000Y-112575000I0J100000D01*
G01*
G37*
G36*
G01*
X103625000Y-113225000D02*
X103625000Y-113025000D01*
G75*
G02*
X103725000Y-112925000I100000J0D01*
G01*
X105000000Y-112925000D01*
G75*
G02*
X105100000Y-113025000I0J-100000D01*
G01*
X105100000Y-113225000D01*
G75*
G02*
X105000000Y-113325000I-100000J0D01*
G01*
X103725000Y-113325000D01*
G75*
G02*
X103625000Y-113225000I0J100000D01*
G01*
G37*
G36*
G01*
X97900000Y-113225000D02*
X97900000Y-113025000D01*
G75*
G02*
X98000000Y-112925000I100000J0D01*
G01*
X99275000Y-112925000D01*
G75*
G02*
X99375000Y-113025000I0J-100000D01*
G01*
X99375000Y-113225000D01*
G75*
G02*
X99275000Y-113325000I-100000J0D01*
G01*
X98000000Y-113325000D01*
G75*
G02*
X97900000Y-113225000I0J100000D01*
G01*
G37*
G36*
G01*
X97900000Y-112575000D02*
X97900000Y-112375000D01*
G75*
G02*
X98000000Y-112275000I100000J0D01*
G01*
X99275000Y-112275000D01*
G75*
G02*
X99375000Y-112375000I0J-100000D01*
G01*
X99375000Y-112575000D01*
G75*
G02*
X99275000Y-112675000I-100000J0D01*
G01*
X98000000Y-112675000D01*
G75*
G02*
X97900000Y-112575000I0J100000D01*
G01*
G37*
G36*
G01*
X97900000Y-111925000D02*
X97900000Y-111725000D01*
G75*
G02*
X98000000Y-111625000I100000J0D01*
G01*
X99275000Y-111625000D01*
G75*
G02*
X99375000Y-111725000I0J-100000D01*
G01*
X99375000Y-111925000D01*
G75*
G02*
X99275000Y-112025000I-100000J0D01*
G01*
X98000000Y-112025000D01*
G75*
G02*
X97900000Y-111925000I0J100000D01*
G01*
G37*
G36*
G01*
X97900000Y-111275000D02*
X97900000Y-111075000D01*
G75*
G02*
X98000000Y-110975000I100000J0D01*
G01*
X99275000Y-110975000D01*
G75*
G02*
X99375000Y-111075000I0J-100000D01*
G01*
X99375000Y-111275000D01*
G75*
G02*
X99275000Y-111375000I-100000J0D01*
G01*
X98000000Y-111375000D01*
G75*
G02*
X97900000Y-111275000I0J100000D01*
G01*
G37*
G36*
G01*
X97900000Y-110625000D02*
X97900000Y-110425000D01*
G75*
G02*
X98000000Y-110325000I100000J0D01*
G01*
X99275000Y-110325000D01*
G75*
G02*
X99375000Y-110425000I0J-100000D01*
G01*
X99375000Y-110625000D01*
G75*
G02*
X99275000Y-110725000I-100000J0D01*
G01*
X98000000Y-110725000D01*
G75*
G02*
X97900000Y-110625000I0J100000D01*
G01*
G37*
G36*
G01*
X97900000Y-109975000D02*
X97900000Y-109775000D01*
G75*
G02*
X98000000Y-109675000I100000J0D01*
G01*
X99275000Y-109675000D01*
G75*
G02*
X99375000Y-109775000I0J-100000D01*
G01*
X99375000Y-109975000D01*
G75*
G02*
X99275000Y-110075000I-100000J0D01*
G01*
X98000000Y-110075000D01*
G75*
G02*
X97900000Y-109975000I0J100000D01*
G01*
G37*
G36*
G01*
X97900000Y-109325000D02*
X97900000Y-109125000D01*
G75*
G02*
X98000000Y-109025000I100000J0D01*
G01*
X99275000Y-109025000D01*
G75*
G02*
X99375000Y-109125000I0J-100000D01*
G01*
X99375000Y-109325000D01*
G75*
G02*
X99275000Y-109425000I-100000J0D01*
G01*
X98000000Y-109425000D01*
G75*
G02*
X97900000Y-109325000I0J100000D01*
G01*
G37*
G36*
G01*
X97900000Y-108675000D02*
X97900000Y-108475000D01*
G75*
G02*
X98000000Y-108375000I100000J0D01*
G01*
X99275000Y-108375000D01*
G75*
G02*
X99375000Y-108475000I0J-100000D01*
G01*
X99375000Y-108675000D01*
G75*
G02*
X99275000Y-108775000I-100000J0D01*
G01*
X98000000Y-108775000D01*
G75*
G02*
X97900000Y-108675000I0J100000D01*
G01*
G37*
G36*
G01*
X97900000Y-108025000D02*
X97900000Y-107825000D01*
G75*
G02*
X98000000Y-107725000I100000J0D01*
G01*
X99275000Y-107725000D01*
G75*
G02*
X99375000Y-107825000I0J-100000D01*
G01*
X99375000Y-108025000D01*
G75*
G02*
X99275000Y-108125000I-100000J0D01*
G01*
X98000000Y-108125000D01*
G75*
G02*
X97900000Y-108025000I0J100000D01*
G01*
G37*
G36*
G01*
X97900000Y-107375000D02*
X97900000Y-107175000D01*
G75*
G02*
X98000000Y-107075000I100000J0D01*
G01*
X99275000Y-107075000D01*
G75*
G02*
X99375000Y-107175000I0J-100000D01*
G01*
X99375000Y-107375000D01*
G75*
G02*
X99275000Y-107475000I-100000J0D01*
G01*
X98000000Y-107475000D01*
G75*
G02*
X97900000Y-107375000I0J100000D01*
G01*
G37*
%TD*%
%TO.C,R16*%
G36*
G01*
X102215000Y-101140000D02*
X102585000Y-101140000D01*
G75*
G02*
X102720000Y-101275000I0J-135000D01*
G01*
X102720000Y-101545000D01*
G75*
G02*
X102585000Y-101680000I-135000J0D01*
G01*
X102215000Y-101680000D01*
G75*
G02*
X102080000Y-101545000I0J135000D01*
G01*
X102080000Y-101275000D01*
G75*
G02*
X102215000Y-101140000I135000J0D01*
G01*
G37*
G36*
G01*
X102215000Y-100120000D02*
X102585000Y-100120000D01*
G75*
G02*
X102720000Y-100255000I0J-135000D01*
G01*
X102720000Y-100525000D01*
G75*
G02*
X102585000Y-100660000I-135000J0D01*
G01*
X102215000Y-100660000D01*
G75*
G02*
X102080000Y-100525000I0J135000D01*
G01*
X102080000Y-100255000D01*
G75*
G02*
X102215000Y-100120000I135000J0D01*
G01*
G37*
%TD*%
%TO.C,R15*%
G36*
G01*
X102585000Y-102860000D02*
X102215000Y-102860000D01*
G75*
G02*
X102080000Y-102725000I0J135000D01*
G01*
X102080000Y-102455000D01*
G75*
G02*
X102215000Y-102320000I135000J0D01*
G01*
X102585000Y-102320000D01*
G75*
G02*
X102720000Y-102455000I0J-135000D01*
G01*
X102720000Y-102725000D01*
G75*
G02*
X102585000Y-102860000I-135000J0D01*
G01*
G37*
G36*
G01*
X102585000Y-103880000D02*
X102215000Y-103880000D01*
G75*
G02*
X102080000Y-103745000I0J135000D01*
G01*
X102080000Y-103475000D01*
G75*
G02*
X102215000Y-103340000I135000J0D01*
G01*
X102585000Y-103340000D01*
G75*
G02*
X102720000Y-103475000I0J-135000D01*
G01*
X102720000Y-103745000D01*
G75*
G02*
X102585000Y-103880000I-135000J0D01*
G01*
G37*
%TD*%
%TO.C,R4*%
G36*
G01*
X109660000Y-118415000D02*
X109660000Y-118785000D01*
G75*
G02*
X109525000Y-118920000I-135000J0D01*
G01*
X109255000Y-118920000D01*
G75*
G02*
X109120000Y-118785000I0J135000D01*
G01*
X109120000Y-118415000D01*
G75*
G02*
X109255000Y-118280000I135000J0D01*
G01*
X109525000Y-118280000D01*
G75*
G02*
X109660000Y-118415000I0J-135000D01*
G01*
G37*
G36*
G01*
X110680000Y-118415000D02*
X110680000Y-118785000D01*
G75*
G02*
X110545000Y-118920000I-135000J0D01*
G01*
X110275000Y-118920000D01*
G75*
G02*
X110140000Y-118785000I0J135000D01*
G01*
X110140000Y-118415000D01*
G75*
G02*
X110275000Y-118280000I135000J0D01*
G01*
X110545000Y-118280000D01*
G75*
G02*
X110680000Y-118415000I0J-135000D01*
G01*
G37*
%TD*%
%TO.C,R3*%
G36*
G01*
X110715000Y-101340000D02*
X111085000Y-101340000D01*
G75*
G02*
X111220000Y-101475000I0J-135000D01*
G01*
X111220000Y-101745000D01*
G75*
G02*
X111085000Y-101880000I-135000J0D01*
G01*
X110715000Y-101880000D01*
G75*
G02*
X110580000Y-101745000I0J135000D01*
G01*
X110580000Y-101475000D01*
G75*
G02*
X110715000Y-101340000I135000J0D01*
G01*
G37*
G36*
G01*
X110715000Y-100320000D02*
X111085000Y-100320000D01*
G75*
G02*
X111220000Y-100455000I0J-135000D01*
G01*
X111220000Y-100725000D01*
G75*
G02*
X111085000Y-100860000I-135000J0D01*
G01*
X110715000Y-100860000D01*
G75*
G02*
X110580000Y-100725000I0J135000D01*
G01*
X110580000Y-100455000D01*
G75*
G02*
X110715000Y-100320000I135000J0D01*
G01*
G37*
%TD*%
%TO.C,D4*%
G36*
G01*
X103672500Y-100710000D02*
X103327500Y-100710000D01*
G75*
G02*
X103180000Y-100562500I0J147500D01*
G01*
X103180000Y-100267500D01*
G75*
G02*
X103327500Y-100120000I147500J0D01*
G01*
X103672500Y-100120000D01*
G75*
G02*
X103820000Y-100267500I0J-147500D01*
G01*
X103820000Y-100562500D01*
G75*
G02*
X103672500Y-100710000I-147500J0D01*
G01*
G37*
G36*
G01*
X103672500Y-101680000D02*
X103327500Y-101680000D01*
G75*
G02*
X103180000Y-101532500I0J147500D01*
G01*
X103180000Y-101237500D01*
G75*
G02*
X103327500Y-101090000I147500J0D01*
G01*
X103672500Y-101090000D01*
G75*
G02*
X103820000Y-101237500I0J-147500D01*
G01*
X103820000Y-101532500D01*
G75*
G02*
X103672500Y-101680000I-147500J0D01*
G01*
G37*
%TD*%
%TO.C,D3*%
G36*
G01*
X103327500Y-103290000D02*
X103672500Y-103290000D01*
G75*
G02*
X103820000Y-103437500I0J-147500D01*
G01*
X103820000Y-103732500D01*
G75*
G02*
X103672500Y-103880000I-147500J0D01*
G01*
X103327500Y-103880000D01*
G75*
G02*
X103180000Y-103732500I0J147500D01*
G01*
X103180000Y-103437500D01*
G75*
G02*
X103327500Y-103290000I147500J0D01*
G01*
G37*
G36*
G01*
X103327500Y-102320000D02*
X103672500Y-102320000D01*
G75*
G02*
X103820000Y-102467500I0J-147500D01*
G01*
X103820000Y-102762500D01*
G75*
G02*
X103672500Y-102910000I-147500J0D01*
G01*
X103327500Y-102910000D01*
G75*
G02*
X103180000Y-102762500I0J147500D01*
G01*
X103180000Y-102467500D01*
G75*
G02*
X103327500Y-102320000I147500J0D01*
G01*
G37*
%TD*%
%TO.C,C1*%
G36*
G01*
X110730000Y-103300000D02*
X111070000Y-103300000D01*
G75*
G02*
X111210000Y-103440000I0J-140000D01*
G01*
X111210000Y-103720000D01*
G75*
G02*
X111070000Y-103860000I-140000J0D01*
G01*
X110730000Y-103860000D01*
G75*
G02*
X110590000Y-103720000I0J140000D01*
G01*
X110590000Y-103440000D01*
G75*
G02*
X110730000Y-103300000I140000J0D01*
G01*
G37*
G36*
G01*
X110730000Y-102340000D02*
X111070000Y-102340000D01*
G75*
G02*
X111210000Y-102480000I0J-140000D01*
G01*
X111210000Y-102760000D01*
G75*
G02*
X111070000Y-102900000I-140000J0D01*
G01*
X110730000Y-102900000D01*
G75*
G02*
X110590000Y-102760000I0J140000D01*
G01*
X110590000Y-102480000D01*
G75*
G02*
X110730000Y-102340000I140000J0D01*
G01*
G37*
%TD*%
%TO.C,R8*%
G36*
G01*
X111660000Y-122115000D02*
X111660000Y-122485000D01*
G75*
G02*
X111525000Y-122620000I-135000J0D01*
G01*
X111255000Y-122620000D01*
G75*
G02*
X111120000Y-122485000I0J135000D01*
G01*
X111120000Y-122115000D01*
G75*
G02*
X111255000Y-121980000I135000J0D01*
G01*
X111525000Y-121980000D01*
G75*
G02*
X111660000Y-122115000I0J-135000D01*
G01*
G37*
G36*
G01*
X112680000Y-122115000D02*
X112680000Y-122485000D01*
G75*
G02*
X112545000Y-122620000I-135000J0D01*
G01*
X112275000Y-122620000D01*
G75*
G02*
X112140000Y-122485000I0J135000D01*
G01*
X112140000Y-122115000D01*
G75*
G02*
X112275000Y-121980000I135000J0D01*
G01*
X112545000Y-121980000D01*
G75*
G02*
X112680000Y-122115000I0J-135000D01*
G01*
G37*
%TD*%
%TO.C,R7*%
G36*
G01*
X122440000Y-123585000D02*
X122440000Y-123215000D01*
G75*
G02*
X122575000Y-123080000I135000J0D01*
G01*
X122845000Y-123080000D01*
G75*
G02*
X122980000Y-123215000I0J-135000D01*
G01*
X122980000Y-123585000D01*
G75*
G02*
X122845000Y-123720000I-135000J0D01*
G01*
X122575000Y-123720000D01*
G75*
G02*
X122440000Y-123585000I0J135000D01*
G01*
G37*
G36*
G01*
X121420000Y-123585000D02*
X121420000Y-123215000D01*
G75*
G02*
X121555000Y-123080000I135000J0D01*
G01*
X121825000Y-123080000D01*
G75*
G02*
X121960000Y-123215000I0J-135000D01*
G01*
X121960000Y-123585000D01*
G75*
G02*
X121825000Y-123720000I-135000J0D01*
G01*
X121555000Y-123720000D01*
G75*
G02*
X121420000Y-123585000I0J135000D01*
G01*
G37*
%TD*%
%TO.C,R6*%
G36*
G01*
X112140000Y-124685000D02*
X112140000Y-124315000D01*
G75*
G02*
X112275000Y-124180000I135000J0D01*
G01*
X112545000Y-124180000D01*
G75*
G02*
X112680000Y-124315000I0J-135000D01*
G01*
X112680000Y-124685000D01*
G75*
G02*
X112545000Y-124820000I-135000J0D01*
G01*
X112275000Y-124820000D01*
G75*
G02*
X112140000Y-124685000I0J135000D01*
G01*
G37*
G36*
G01*
X111120000Y-124685000D02*
X111120000Y-124315000D01*
G75*
G02*
X111255000Y-124180000I135000J0D01*
G01*
X111525000Y-124180000D01*
G75*
G02*
X111660000Y-124315000I0J-135000D01*
G01*
X111660000Y-124685000D01*
G75*
G02*
X111525000Y-124820000I-135000J0D01*
G01*
X111255000Y-124820000D01*
G75*
G02*
X111120000Y-124685000I0J135000D01*
G01*
G37*
%TD*%
%TO.C,R5*%
G36*
G01*
X122440000Y-120285000D02*
X122440000Y-119915000D01*
G75*
G02*
X122575000Y-119780000I135000J0D01*
G01*
X122845000Y-119780000D01*
G75*
G02*
X122980000Y-119915000I0J-135000D01*
G01*
X122980000Y-120285000D01*
G75*
G02*
X122845000Y-120420000I-135000J0D01*
G01*
X122575000Y-120420000D01*
G75*
G02*
X122440000Y-120285000I0J135000D01*
G01*
G37*
G36*
G01*
X121420000Y-120285000D02*
X121420000Y-119915000D01*
G75*
G02*
X121555000Y-119780000I135000J0D01*
G01*
X121825000Y-119780000D01*
G75*
G02*
X121960000Y-119915000I0J-135000D01*
G01*
X121960000Y-120285000D01*
G75*
G02*
X121825000Y-120420000I-135000J0D01*
G01*
X121555000Y-120420000D01*
G75*
G02*
X121420000Y-120285000I0J135000D01*
G01*
G37*
%TD*%
%TO.C,D2*%
G36*
G01*
X111710000Y-121027500D02*
X111710000Y-121372500D01*
G75*
G02*
X111562500Y-121520000I-147500J0D01*
G01*
X111267500Y-121520000D01*
G75*
G02*
X111120000Y-121372500I0J147500D01*
G01*
X111120000Y-121027500D01*
G75*
G02*
X111267500Y-120880000I147500J0D01*
G01*
X111562500Y-120880000D01*
G75*
G02*
X111710000Y-121027500I0J-147500D01*
G01*
G37*
G36*
G01*
X112680000Y-121027500D02*
X112680000Y-121372500D01*
G75*
G02*
X112532500Y-121520000I-147500J0D01*
G01*
X112237500Y-121520000D01*
G75*
G02*
X112090000Y-121372500I0J147500D01*
G01*
X112090000Y-121027500D01*
G75*
G02*
X112237500Y-120880000I147500J0D01*
G01*
X112532500Y-120880000D01*
G75*
G02*
X112680000Y-121027500I0J-147500D01*
G01*
G37*
%TD*%
%TO.C,D1*%
G36*
G01*
X111710000Y-123227500D02*
X111710000Y-123572500D01*
G75*
G02*
X111562500Y-123720000I-147500J0D01*
G01*
X111267500Y-123720000D01*
G75*
G02*
X111120000Y-123572500I0J147500D01*
G01*
X111120000Y-123227500D01*
G75*
G02*
X111267500Y-123080000I147500J0D01*
G01*
X111562500Y-123080000D01*
G75*
G02*
X111710000Y-123227500I0J-147500D01*
G01*
G37*
G36*
G01*
X112680000Y-123227500D02*
X112680000Y-123572500D01*
G75*
G02*
X112532500Y-123720000I-147500J0D01*
G01*
X112237500Y-123720000D01*
G75*
G02*
X112090000Y-123572500I0J147500D01*
G01*
X112090000Y-123227500D01*
G75*
G02*
X112237500Y-123080000I147500J0D01*
G01*
X112532500Y-123080000D01*
G75*
G02*
X112680000Y-123227500I0J-147500D01*
G01*
G37*
%TD*%
%TO.C,C5*%
G36*
G01*
X111700000Y-119930000D02*
X111700000Y-120270000D01*
G75*
G02*
X111560000Y-120410000I-140000J0D01*
G01*
X111280000Y-120410000D01*
G75*
G02*
X111140000Y-120270000I0J140000D01*
G01*
X111140000Y-119930000D01*
G75*
G02*
X111280000Y-119790000I140000J0D01*
G01*
X111560000Y-119790000D01*
G75*
G02*
X111700000Y-119930000I0J-140000D01*
G01*
G37*
G36*
G01*
X112660000Y-119930000D02*
X112660000Y-120270000D01*
G75*
G02*
X112520000Y-120410000I-140000J0D01*
G01*
X112240000Y-120410000D01*
G75*
G02*
X112100000Y-120270000I0J140000D01*
G01*
X112100000Y-119930000D01*
G75*
G02*
X112240000Y-119790000I140000J0D01*
G01*
X112520000Y-119790000D01*
G75*
G02*
X112660000Y-119930000I0J-140000D01*
G01*
G37*
%TD*%
%TO.C,C4*%
G36*
G01*
X122400000Y-121370000D02*
X122400000Y-121030000D01*
G75*
G02*
X122540000Y-120890000I140000J0D01*
G01*
X122820000Y-120890000D01*
G75*
G02*
X122960000Y-121030000I0J-140000D01*
G01*
X122960000Y-121370000D01*
G75*
G02*
X122820000Y-121510000I-140000J0D01*
G01*
X122540000Y-121510000D01*
G75*
G02*
X122400000Y-121370000I0J140000D01*
G01*
G37*
G36*
G01*
X121440000Y-121370000D02*
X121440000Y-121030000D01*
G75*
G02*
X121580000Y-120890000I140000J0D01*
G01*
X121860000Y-120890000D01*
G75*
G02*
X122000000Y-121030000I0J-140000D01*
G01*
X122000000Y-121370000D01*
G75*
G02*
X121860000Y-121510000I-140000J0D01*
G01*
X121580000Y-121510000D01*
G75*
G02*
X121440000Y-121370000I0J140000D01*
G01*
G37*
%TD*%
%TO.C,R2*%
G36*
G01*
X121960000Y-122115000D02*
X121960000Y-122485000D01*
G75*
G02*
X121825000Y-122620000I-135000J0D01*
G01*
X121555000Y-122620000D01*
G75*
G02*
X121420000Y-122485000I0J135000D01*
G01*
X121420000Y-122115000D01*
G75*
G02*
X121555000Y-121980000I135000J0D01*
G01*
X121825000Y-121980000D01*
G75*
G02*
X121960000Y-122115000I0J-135000D01*
G01*
G37*
G36*
G01*
X122980000Y-122115000D02*
X122980000Y-122485000D01*
G75*
G02*
X122845000Y-122620000I-135000J0D01*
G01*
X122575000Y-122620000D01*
G75*
G02*
X122440000Y-122485000I0J135000D01*
G01*
X122440000Y-122115000D01*
G75*
G02*
X122575000Y-121980000I135000J0D01*
G01*
X122845000Y-121980000D01*
G75*
G02*
X122980000Y-122115000I0J-135000D01*
G01*
G37*
%TD*%
%TO.C,R1*%
G36*
G01*
X122440000Y-124685000D02*
X122440000Y-124315000D01*
G75*
G02*
X122575000Y-124180000I135000J0D01*
G01*
X122845000Y-124180000D01*
G75*
G02*
X122980000Y-124315000I0J-135000D01*
G01*
X122980000Y-124685000D01*
G75*
G02*
X122845000Y-124820000I-135000J0D01*
G01*
X122575000Y-124820000D01*
G75*
G02*
X122440000Y-124685000I0J135000D01*
G01*
G37*
G36*
G01*
X121420000Y-124685000D02*
X121420000Y-124315000D01*
G75*
G02*
X121555000Y-124180000I135000J0D01*
G01*
X121825000Y-124180000D01*
G75*
G02*
X121960000Y-124315000I0J-135000D01*
G01*
X121960000Y-124685000D01*
G75*
G02*
X121825000Y-124820000I-135000J0D01*
G01*
X121555000Y-124820000D01*
G75*
G02*
X121420000Y-124685000I0J135000D01*
G01*
G37*
%TD*%
%TO.C,J2*%
G36*
G01*
X91500000Y-99950000D02*
X91500000Y-102150000D01*
G75*
G02*
X91250000Y-102400000I-250000J0D01*
G01*
X90750000Y-102400000D01*
G75*
G02*
X90500000Y-102150000I0J250000D01*
G01*
X90500000Y-99950000D01*
G75*
G02*
X90750000Y-99700000I250000J0D01*
G01*
X91250000Y-99700000D01*
G75*
G02*
X91500000Y-99950000I0J-250000D01*
G01*
G37*
G36*
G01*
X97700000Y-99950000D02*
X97700000Y-102150000D01*
G75*
G02*
X97450000Y-102400000I-250000J0D01*
G01*
X96950000Y-102400000D01*
G75*
G02*
X96700000Y-102150000I0J250000D01*
G01*
X96700000Y-99950000D01*
G75*
G02*
X96950000Y-99700000I250000J0D01*
G01*
X97450000Y-99700000D01*
G75*
G02*
X97700000Y-99950000I0J-250000D01*
G01*
G37*
G36*
G01*
X93150000Y-103550000D02*
X93150000Y-104950000D01*
G75*
G02*
X93000000Y-105100000I-150000J0D01*
G01*
X92700000Y-105100000D01*
G75*
G02*
X92550000Y-104950000I0J150000D01*
G01*
X92550000Y-103550000D01*
G75*
G02*
X92700000Y-103400000I150000J0D01*
G01*
X93000000Y-103400000D01*
G75*
G02*
X93150000Y-103550000I0J-150000D01*
G01*
G37*
G36*
G01*
X94400000Y-103550000D02*
X94400000Y-104950000D01*
G75*
G02*
X94250000Y-105100000I-150000J0D01*
G01*
X93950000Y-105100000D01*
G75*
G02*
X93800000Y-104950000I0J150000D01*
G01*
X93800000Y-103550000D01*
G75*
G02*
X93950000Y-103400000I150000J0D01*
G01*
X94250000Y-103400000D01*
G75*
G02*
X94400000Y-103550000I0J-150000D01*
G01*
G37*
G36*
G01*
X95650000Y-103550000D02*
X95650000Y-104950000D01*
G75*
G02*
X95500000Y-105100000I-150000J0D01*
G01*
X95200000Y-105100000D01*
G75*
G02*
X95050000Y-104950000I0J150000D01*
G01*
X95050000Y-103550000D01*
G75*
G02*
X95200000Y-103400000I150000J0D01*
G01*
X95500000Y-103400000D01*
G75*
G02*
X95650000Y-103550000I0J-150000D01*
G01*
G37*
%TD*%
%TO.C,R18*%
G36*
G01*
X110140000Y-119885000D02*
X110140000Y-119515000D01*
G75*
G02*
X110275000Y-119380000I135000J0D01*
G01*
X110545000Y-119380000D01*
G75*
G02*
X110680000Y-119515000I0J-135000D01*
G01*
X110680000Y-119885000D01*
G75*
G02*
X110545000Y-120020000I-135000J0D01*
G01*
X110275000Y-120020000D01*
G75*
G02*
X110140000Y-119885000I0J135000D01*
G01*
G37*
G36*
G01*
X109120000Y-119885000D02*
X109120000Y-119515000D01*
G75*
G02*
X109255000Y-119380000I135000J0D01*
G01*
X109525000Y-119380000D01*
G75*
G02*
X109660000Y-119515000I0J-135000D01*
G01*
X109660000Y-119885000D01*
G75*
G02*
X109525000Y-120020000I-135000J0D01*
G01*
X109255000Y-120020000D01*
G75*
G02*
X109120000Y-119885000I0J135000D01*
G01*
G37*
%TD*%
%TO.C,R17*%
G36*
G01*
X108040000Y-119885000D02*
X108040000Y-119515000D01*
G75*
G02*
X108175000Y-119380000I135000J0D01*
G01*
X108445000Y-119380000D01*
G75*
G02*
X108580000Y-119515000I0J-135000D01*
G01*
X108580000Y-119885000D01*
G75*
G02*
X108445000Y-120020000I-135000J0D01*
G01*
X108175000Y-120020000D01*
G75*
G02*
X108040000Y-119885000I0J135000D01*
G01*
G37*
G36*
G01*
X107020000Y-119885000D02*
X107020000Y-119515000D01*
G75*
G02*
X107155000Y-119380000I135000J0D01*
G01*
X107425000Y-119380000D01*
G75*
G02*
X107560000Y-119515000I0J-135000D01*
G01*
X107560000Y-119885000D01*
G75*
G02*
X107425000Y-120020000I-135000J0D01*
G01*
X107155000Y-120020000D01*
G75*
G02*
X107020000Y-119885000I0J135000D01*
G01*
G37*
%TD*%
%TO.C,C7*%
G36*
G01*
X103600000Y-119530000D02*
X103600000Y-119870000D01*
G75*
G02*
X103460000Y-120010000I-140000J0D01*
G01*
X103180000Y-120010000D01*
G75*
G02*
X103040000Y-119870000I0J140000D01*
G01*
X103040000Y-119530000D01*
G75*
G02*
X103180000Y-119390000I140000J0D01*
G01*
X103460000Y-119390000D01*
G75*
G02*
X103600000Y-119530000I0J-140000D01*
G01*
G37*
G36*
G01*
X104560000Y-119530000D02*
X104560000Y-119870000D01*
G75*
G02*
X104420000Y-120010000I-140000J0D01*
G01*
X104140000Y-120010000D01*
G75*
G02*
X104000000Y-119870000I0J140000D01*
G01*
X104000000Y-119530000D01*
G75*
G02*
X104140000Y-119390000I140000J0D01*
G01*
X104420000Y-119390000D01*
G75*
G02*
X104560000Y-119530000I0J-140000D01*
G01*
G37*
%TD*%
%TO.C,C6*%
G36*
G01*
X111700000Y-126830000D02*
X111700000Y-127170000D01*
G75*
G02*
X111560000Y-127310000I-140000J0D01*
G01*
X111280000Y-127310000D01*
G75*
G02*
X111140000Y-127170000I0J140000D01*
G01*
X111140000Y-126830000D01*
G75*
G02*
X111280000Y-126690000I140000J0D01*
G01*
X111560000Y-126690000D01*
G75*
G02*
X111700000Y-126830000I0J-140000D01*
G01*
G37*
G36*
G01*
X112660000Y-126830000D02*
X112660000Y-127170000D01*
G75*
G02*
X112520000Y-127310000I-140000J0D01*
G01*
X112240000Y-127310000D01*
G75*
G02*
X112100000Y-127170000I0J140000D01*
G01*
X112100000Y-126830000D01*
G75*
G02*
X112240000Y-126690000I140000J0D01*
G01*
X112520000Y-126690000D01*
G75*
G02*
X112660000Y-126830000I0J-140000D01*
G01*
G37*
%TD*%
%TO.C,C3*%
G36*
G01*
X106000000Y-119870000D02*
X106000000Y-119530000D01*
G75*
G02*
X106140000Y-119390000I140000J0D01*
G01*
X106420000Y-119390000D01*
G75*
G02*
X106560000Y-119530000I0J-140000D01*
G01*
X106560000Y-119870000D01*
G75*
G02*
X106420000Y-120010000I-140000J0D01*
G01*
X106140000Y-120010000D01*
G75*
G02*
X106000000Y-119870000I0J140000D01*
G01*
G37*
G36*
G01*
X105040000Y-119870000D02*
X105040000Y-119530000D01*
G75*
G02*
X105180000Y-119390000I140000J0D01*
G01*
X105460000Y-119390000D01*
G75*
G02*
X105600000Y-119530000I0J-140000D01*
G01*
X105600000Y-119870000D01*
G75*
G02*
X105460000Y-120010000I-140000J0D01*
G01*
X105180000Y-120010000D01*
G75*
G02*
X105040000Y-119870000I0J140000D01*
G01*
G37*
%TD*%
%TO.C,C2*%
G36*
G01*
X111700000Y-125730000D02*
X111700000Y-126070000D01*
G75*
G02*
X111560000Y-126210000I-140000J0D01*
G01*
X111280000Y-126210000D01*
G75*
G02*
X111140000Y-126070000I0J140000D01*
G01*
X111140000Y-125730000D01*
G75*
G02*
X111280000Y-125590000I140000J0D01*
G01*
X111560000Y-125590000D01*
G75*
G02*
X111700000Y-125730000I0J-140000D01*
G01*
G37*
G36*
G01*
X112660000Y-125730000D02*
X112660000Y-126070000D01*
G75*
G02*
X112520000Y-126210000I-140000J0D01*
G01*
X112240000Y-126210000D01*
G75*
G02*
X112100000Y-126070000I0J140000D01*
G01*
X112100000Y-125730000D01*
G75*
G02*
X112240000Y-125590000I140000J0D01*
G01*
X112520000Y-125590000D01*
G75*
G02*
X112660000Y-125730000I0J-140000D01*
G01*
G37*
%TD*%
%TO.C,R13*%
G36*
G01*
X93760000Y-111215000D02*
X93760000Y-111585000D01*
G75*
G02*
X93625000Y-111720000I-135000J0D01*
G01*
X93355000Y-111720000D01*
G75*
G02*
X93220000Y-111585000I0J135000D01*
G01*
X93220000Y-111215000D01*
G75*
G02*
X93355000Y-111080000I135000J0D01*
G01*
X93625000Y-111080000D01*
G75*
G02*
X93760000Y-111215000I0J-135000D01*
G01*
G37*
G36*
G01*
X94780000Y-111215000D02*
X94780000Y-111585000D01*
G75*
G02*
X94645000Y-111720000I-135000J0D01*
G01*
X94375000Y-111720000D01*
G75*
G02*
X94240000Y-111585000I0J135000D01*
G01*
X94240000Y-111215000D01*
G75*
G02*
X94375000Y-111080000I135000J0D01*
G01*
X94645000Y-111080000D01*
G75*
G02*
X94780000Y-111215000I0J-135000D01*
G01*
G37*
%TD*%
%TO.C,R11*%
G36*
G01*
X106860000Y-110115000D02*
X106860000Y-110485000D01*
G75*
G02*
X106725000Y-110620000I-135000J0D01*
G01*
X106455000Y-110620000D01*
G75*
G02*
X106320000Y-110485000I0J135000D01*
G01*
X106320000Y-110115000D01*
G75*
G02*
X106455000Y-109980000I135000J0D01*
G01*
X106725000Y-109980000D01*
G75*
G02*
X106860000Y-110115000I0J-135000D01*
G01*
G37*
G36*
G01*
X107880000Y-110115000D02*
X107880000Y-110485000D01*
G75*
G02*
X107745000Y-110620000I-135000J0D01*
G01*
X107475000Y-110620000D01*
G75*
G02*
X107340000Y-110485000I0J135000D01*
G01*
X107340000Y-110115000D01*
G75*
G02*
X107475000Y-109980000I135000J0D01*
G01*
X107745000Y-109980000D01*
G75*
G02*
X107880000Y-110115000I0J-135000D01*
G01*
G37*
%TD*%
%TO.C,R10*%
G36*
G01*
X107340000Y-111585000D02*
X107340000Y-111215000D01*
G75*
G02*
X107475000Y-111080000I135000J0D01*
G01*
X107745000Y-111080000D01*
G75*
G02*
X107880000Y-111215000I0J-135000D01*
G01*
X107880000Y-111585000D01*
G75*
G02*
X107745000Y-111720000I-135000J0D01*
G01*
X107475000Y-111720000D01*
G75*
G02*
X107340000Y-111585000I0J135000D01*
G01*
G37*
G36*
G01*
X106320000Y-111585000D02*
X106320000Y-111215000D01*
G75*
G02*
X106455000Y-111080000I135000J0D01*
G01*
X106725000Y-111080000D01*
G75*
G02*
X106860000Y-111215000I0J-135000D01*
G01*
X106860000Y-111585000D01*
G75*
G02*
X106725000Y-111720000I-135000J0D01*
G01*
X106455000Y-111720000D01*
G75*
G02*
X106320000Y-111585000I0J135000D01*
G01*
G37*
%TD*%
%TO.C,R9*%
G36*
G01*
X106860000Y-112315000D02*
X106860000Y-112685000D01*
G75*
G02*
X106725000Y-112820000I-135000J0D01*
G01*
X106455000Y-112820000D01*
G75*
G02*
X106320000Y-112685000I0J135000D01*
G01*
X106320000Y-112315000D01*
G75*
G02*
X106455000Y-112180000I135000J0D01*
G01*
X106725000Y-112180000D01*
G75*
G02*
X106860000Y-112315000I0J-135000D01*
G01*
G37*
G36*
G01*
X107880000Y-112315000D02*
X107880000Y-112685000D01*
G75*
G02*
X107745000Y-112820000I-135000J0D01*
G01*
X107475000Y-112820000D01*
G75*
G02*
X107340000Y-112685000I0J135000D01*
G01*
X107340000Y-112315000D01*
G75*
G02*
X107475000Y-112180000I135000J0D01*
G01*
X107745000Y-112180000D01*
G75*
G02*
X107880000Y-112315000I0J-135000D01*
G01*
G37*
%TD*%
%TO.C,C16*%
G36*
G01*
X95470000Y-108300000D02*
X95130000Y-108300000D01*
G75*
G02*
X94990000Y-108160000I0J140000D01*
G01*
X94990000Y-107880000D01*
G75*
G02*
X95130000Y-107740000I140000J0D01*
G01*
X95470000Y-107740000D01*
G75*
G02*
X95610000Y-107880000I0J-140000D01*
G01*
X95610000Y-108160000D01*
G75*
G02*
X95470000Y-108300000I-140000J0D01*
G01*
G37*
G36*
G01*
X95470000Y-109260000D02*
X95130000Y-109260000D01*
G75*
G02*
X94990000Y-109120000I0J140000D01*
G01*
X94990000Y-108840000D01*
G75*
G02*
X95130000Y-108700000I140000J0D01*
G01*
X95470000Y-108700000D01*
G75*
G02*
X95610000Y-108840000I0J-140000D01*
G01*
X95610000Y-109120000D01*
G75*
G02*
X95470000Y-109260000I-140000J0D01*
G01*
G37*
%TD*%
%TO.C,C15*%
G36*
G01*
X106900000Y-108330000D02*
X106900000Y-108670000D01*
G75*
G02*
X106760000Y-108810000I-140000J0D01*
G01*
X106480000Y-108810000D01*
G75*
G02*
X106340000Y-108670000I0J140000D01*
G01*
X106340000Y-108330000D01*
G75*
G02*
X106480000Y-108190000I140000J0D01*
G01*
X106760000Y-108190000D01*
G75*
G02*
X106900000Y-108330000I0J-140000D01*
G01*
G37*
G36*
G01*
X107860000Y-108330000D02*
X107860000Y-108670000D01*
G75*
G02*
X107720000Y-108810000I-140000J0D01*
G01*
X107440000Y-108810000D01*
G75*
G02*
X107300000Y-108670000I0J140000D01*
G01*
X107300000Y-108330000D01*
G75*
G02*
X107440000Y-108190000I140000J0D01*
G01*
X107720000Y-108190000D01*
G75*
G02*
X107860000Y-108330000I0J-140000D01*
G01*
G37*
%TD*%
%TO.C,C14*%
G36*
G01*
X96230000Y-108700000D02*
X96570000Y-108700000D01*
G75*
G02*
X96710000Y-108840000I0J-140000D01*
G01*
X96710000Y-109120000D01*
G75*
G02*
X96570000Y-109260000I-140000J0D01*
G01*
X96230000Y-109260000D01*
G75*
G02*
X96090000Y-109120000I0J140000D01*
G01*
X96090000Y-108840000D01*
G75*
G02*
X96230000Y-108700000I140000J0D01*
G01*
G37*
G36*
G01*
X96230000Y-107740000D02*
X96570000Y-107740000D01*
G75*
G02*
X96710000Y-107880000I0J-140000D01*
G01*
X96710000Y-108160000D01*
G75*
G02*
X96570000Y-108300000I-140000J0D01*
G01*
X96230000Y-108300000D01*
G75*
G02*
X96090000Y-108160000I0J140000D01*
G01*
X96090000Y-107880000D01*
G75*
G02*
X96230000Y-107740000I140000J0D01*
G01*
G37*
%TD*%
%TO.C,C13*%
G36*
G01*
X92470000Y-111680000D02*
X92130000Y-111680000D01*
G75*
G02*
X91990000Y-111540000I0J140000D01*
G01*
X91990000Y-111260000D01*
G75*
G02*
X92130000Y-111120000I140000J0D01*
G01*
X92470000Y-111120000D01*
G75*
G02*
X92610000Y-111260000I0J-140000D01*
G01*
X92610000Y-111540000D01*
G75*
G02*
X92470000Y-111680000I-140000J0D01*
G01*
G37*
G36*
G01*
X92470000Y-112640000D02*
X92130000Y-112640000D01*
G75*
G02*
X91990000Y-112500000I0J140000D01*
G01*
X91990000Y-112220000D01*
G75*
G02*
X92130000Y-112080000I140000J0D01*
G01*
X92470000Y-112080000D01*
G75*
G02*
X92610000Y-112220000I0J-140000D01*
G01*
X92610000Y-112500000D01*
G75*
G02*
X92470000Y-112640000I-140000J0D01*
G01*
G37*
%TD*%
%TO.C,C12*%
G36*
G01*
X92130000Y-110000000D02*
X92470000Y-110000000D01*
G75*
G02*
X92610000Y-110140000I0J-140000D01*
G01*
X92610000Y-110420000D01*
G75*
G02*
X92470000Y-110560000I-140000J0D01*
G01*
X92130000Y-110560000D01*
G75*
G02*
X91990000Y-110420000I0J140000D01*
G01*
X91990000Y-110140000D01*
G75*
G02*
X92130000Y-110000000I140000J0D01*
G01*
G37*
G36*
G01*
X92130000Y-109040000D02*
X92470000Y-109040000D01*
G75*
G02*
X92610000Y-109180000I0J-140000D01*
G01*
X92610000Y-109460000D01*
G75*
G02*
X92470000Y-109600000I-140000J0D01*
G01*
X92130000Y-109600000D01*
G75*
G02*
X91990000Y-109460000I0J140000D01*
G01*
X91990000Y-109180000D01*
G75*
G02*
X92130000Y-109040000I140000J0D01*
G01*
G37*
%TD*%
%TO.C,C11*%
G36*
G01*
X95800000Y-113630000D02*
X95800000Y-113970000D01*
G75*
G02*
X95660000Y-114110000I-140000J0D01*
G01*
X95380000Y-114110000D01*
G75*
G02*
X95240000Y-113970000I0J140000D01*
G01*
X95240000Y-113630000D01*
G75*
G02*
X95380000Y-113490000I140000J0D01*
G01*
X95660000Y-113490000D01*
G75*
G02*
X95800000Y-113630000I0J-140000D01*
G01*
G37*
G36*
G01*
X96760000Y-113630000D02*
X96760000Y-113970000D01*
G75*
G02*
X96620000Y-114110000I-140000J0D01*
G01*
X96340000Y-114110000D01*
G75*
G02*
X96200000Y-113970000I0J140000D01*
G01*
X96200000Y-113630000D01*
G75*
G02*
X96340000Y-113490000I140000J0D01*
G01*
X96620000Y-113490000D01*
G75*
G02*
X96760000Y-113630000I0J-140000D01*
G01*
G37*
%TD*%
%TO.C,C10*%
G36*
G01*
X107300000Y-107270000D02*
X107300000Y-106930000D01*
G75*
G02*
X107440000Y-106790000I140000J0D01*
G01*
X107720000Y-106790000D01*
G75*
G02*
X107860000Y-106930000I0J-140000D01*
G01*
X107860000Y-107270000D01*
G75*
G02*
X107720000Y-107410000I-140000J0D01*
G01*
X107440000Y-107410000D01*
G75*
G02*
X107300000Y-107270000I0J140000D01*
G01*
G37*
G36*
G01*
X106340000Y-107270000D02*
X106340000Y-106930000D01*
G75*
G02*
X106480000Y-106790000I140000J0D01*
G01*
X106760000Y-106790000D01*
G75*
G02*
X106900000Y-106930000I0J-140000D01*
G01*
X106900000Y-107270000D01*
G75*
G02*
X106760000Y-107410000I-140000J0D01*
G01*
X106480000Y-107410000D01*
G75*
G02*
X106340000Y-107270000I0J140000D01*
G01*
G37*
%TD*%
%TO.C,C9*%
G36*
G01*
X95700000Y-106830000D02*
X95700000Y-107170000D01*
G75*
G02*
X95560000Y-107310000I-140000J0D01*
G01*
X95280000Y-107310000D01*
G75*
G02*
X95140000Y-107170000I0J140000D01*
G01*
X95140000Y-106830000D01*
G75*
G02*
X95280000Y-106690000I140000J0D01*
G01*
X95560000Y-106690000D01*
G75*
G02*
X95700000Y-106830000I0J-140000D01*
G01*
G37*
G36*
G01*
X96660000Y-106830000D02*
X96660000Y-107170000D01*
G75*
G02*
X96520000Y-107310000I-140000J0D01*
G01*
X96240000Y-107310000D01*
G75*
G02*
X96100000Y-107170000I0J140000D01*
G01*
X96100000Y-106830000D01*
G75*
G02*
X96240000Y-106690000I140000J0D01*
G01*
X96520000Y-106690000D01*
G75*
G02*
X96660000Y-106830000I0J-140000D01*
G01*
G37*
%TD*%
%TO.C,C8*%
G36*
G01*
X95800000Y-112530000D02*
X95800000Y-112870000D01*
G75*
G02*
X95660000Y-113010000I-140000J0D01*
G01*
X95380000Y-113010000D01*
G75*
G02*
X95240000Y-112870000I0J140000D01*
G01*
X95240000Y-112530000D01*
G75*
G02*
X95380000Y-112390000I140000J0D01*
G01*
X95660000Y-112390000D01*
G75*
G02*
X95800000Y-112530000I0J-140000D01*
G01*
G37*
G36*
G01*
X96760000Y-112530000D02*
X96760000Y-112870000D01*
G75*
G02*
X96620000Y-113010000I-140000J0D01*
G01*
X96340000Y-113010000D01*
G75*
G02*
X96200000Y-112870000I0J140000D01*
G01*
X96200000Y-112530000D01*
G75*
G02*
X96340000Y-112390000I140000J0D01*
G01*
X96620000Y-112390000D01*
G75*
G02*
X96760000Y-112530000I0J-140000D01*
G01*
G37*
%TD*%
D12*
%TO.C,J8*%
X127100000Y-101300000D03*
X125100000Y-101300000D03*
X123100000Y-101300000D03*
X121100000Y-101300000D03*
X119100000Y-101300000D03*
D13*
X117100000Y-101300000D03*
%TD*%
D14*
%TO.C,SW2*%
X109500000Y-102100000D03*
X105100000Y-102100000D03*
%TD*%
D15*
%TO.C,J7*%
X103100000Y-116300000D03*
%TD*%
D16*
%TO.C,J6*%
X125355000Y-121350000D03*
X125355000Y-122150000D03*
X125355000Y-127050000D03*
X125355000Y-127850000D03*
X125355000Y-127850000D03*
X125355000Y-127050000D03*
X125355000Y-122150000D03*
X125355000Y-121350000D03*
D17*
X125355000Y-126350000D03*
X125355000Y-125850000D03*
X125355000Y-125350000D03*
X125355000Y-124350000D03*
X125355000Y-123850000D03*
X125355000Y-123350000D03*
X125355000Y-122850000D03*
X125355000Y-124850000D03*
D18*
X126270000Y-120280000D03*
X126270000Y-128920000D03*
D19*
X126800000Y-127490000D03*
D20*
X130450000Y-128920000D03*
D19*
X126800000Y-121710000D03*
D20*
X130450000Y-120280000D03*
%TD*%
D21*
%TO.C,SW1*%
X115050000Y-127120000D03*
X122350000Y-127120000D03*
X122350000Y-129330000D03*
X115050000Y-129330000D03*
D22*
X120950000Y-126470000D03*
X119450000Y-126470000D03*
X116450000Y-126470000D03*
D23*
X120200000Y-128230000D03*
X117200000Y-128230000D03*
%TD*%
D24*
%TO.C,U1*%
X130600000Y-100445000D03*
X130600000Y-101715000D03*
X130600000Y-102985000D03*
X130600000Y-104255000D03*
X130600000Y-105525000D03*
X130600000Y-106795000D03*
X130600000Y-108065000D03*
X130600000Y-109335000D03*
X130600000Y-110605000D03*
X130600000Y-111875000D03*
X130600000Y-113145000D03*
X130600000Y-114415000D03*
X130600000Y-115685000D03*
X130600000Y-116955000D03*
D25*
X127815000Y-117955000D03*
X126545000Y-117955000D03*
X125275000Y-117955000D03*
X124005000Y-117955000D03*
X122735000Y-117955000D03*
X121465000Y-117955000D03*
X120195000Y-117955000D03*
X118925000Y-117955000D03*
X117655000Y-117955000D03*
X116385000Y-117955000D03*
D24*
X113600000Y-116955000D03*
X113600000Y-115685000D03*
X113600000Y-114415000D03*
X113600000Y-113145000D03*
X113600000Y-111875000D03*
X113600000Y-110605000D03*
X113600000Y-109335000D03*
X113600000Y-108065000D03*
X113600000Y-106795000D03*
X113600000Y-105525000D03*
X113600000Y-104255000D03*
X113600000Y-102985000D03*
X113600000Y-101715000D03*
X113600000Y-100445000D03*
D26*
X121100000Y-107945000D03*
%TD*%
D27*
%TO.C,U4*%
X104900000Y-127850000D03*
X109500000Y-127850000D03*
X107200000Y-127850000D03*
D28*
X107200000Y-121550000D03*
%TD*%
D29*
%TO.C,U3*%
X117000000Y-122300000D03*
G36*
G01*
X115500000Y-124055000D02*
X115500000Y-124355000D01*
G75*
G02*
X115350000Y-124505000I-150000J0D01*
G01*
X113700000Y-124505000D01*
G75*
G02*
X113550000Y-124355000I0J150000D01*
G01*
X113550000Y-124055000D01*
G75*
G02*
X113700000Y-123905000I150000J0D01*
G01*
X115350000Y-123905000D01*
G75*
G02*
X115500000Y-124055000I0J-150000D01*
G01*
G37*
G36*
G01*
X115500000Y-122785000D02*
X115500000Y-123085000D01*
G75*
G02*
X115350000Y-123235000I-150000J0D01*
G01*
X113700000Y-123235000D01*
G75*
G02*
X113550000Y-123085000I0J150000D01*
G01*
X113550000Y-122785000D01*
G75*
G02*
X113700000Y-122635000I150000J0D01*
G01*
X115350000Y-122635000D01*
G75*
G02*
X115500000Y-122785000I0J-150000D01*
G01*
G37*
G36*
G01*
X115500000Y-121515000D02*
X115500000Y-121815000D01*
G75*
G02*
X115350000Y-121965000I-150000J0D01*
G01*
X113700000Y-121965000D01*
G75*
G02*
X113550000Y-121815000I0J150000D01*
G01*
X113550000Y-121515000D01*
G75*
G02*
X113700000Y-121365000I150000J0D01*
G01*
X115350000Y-121365000D01*
G75*
G02*
X115500000Y-121515000I0J-150000D01*
G01*
G37*
G36*
G01*
X115500000Y-120245000D02*
X115500000Y-120545000D01*
G75*
G02*
X115350000Y-120695000I-150000J0D01*
G01*
X113700000Y-120695000D01*
G75*
G02*
X113550000Y-120545000I0J150000D01*
G01*
X113550000Y-120245000D01*
G75*
G02*
X113700000Y-120095000I150000J0D01*
G01*
X115350000Y-120095000D01*
G75*
G02*
X115500000Y-120245000I0J-150000D01*
G01*
G37*
G36*
G01*
X120450000Y-120245000D02*
X120450000Y-120545000D01*
G75*
G02*
X120300000Y-120695000I-150000J0D01*
G01*
X118650000Y-120695000D01*
G75*
G02*
X118500000Y-120545000I0J150000D01*
G01*
X118500000Y-120245000D01*
G75*
G02*
X118650000Y-120095000I150000J0D01*
G01*
X120300000Y-120095000D01*
G75*
G02*
X120450000Y-120245000I0J-150000D01*
G01*
G37*
G36*
G01*
X120450000Y-121515000D02*
X120450000Y-121815000D01*
G75*
G02*
X120300000Y-121965000I-150000J0D01*
G01*
X118650000Y-121965000D01*
G75*
G02*
X118500000Y-121815000I0J150000D01*
G01*
X118500000Y-121515000D01*
G75*
G02*
X118650000Y-121365000I150000J0D01*
G01*
X120300000Y-121365000D01*
G75*
G02*
X120450000Y-121515000I0J-150000D01*
G01*
G37*
G36*
G01*
X120450000Y-122785000D02*
X120450000Y-123085000D01*
G75*
G02*
X120300000Y-123235000I-150000J0D01*
G01*
X118650000Y-123235000D01*
G75*
G02*
X118500000Y-123085000I0J150000D01*
G01*
X118500000Y-122785000D01*
G75*
G02*
X118650000Y-122635000I150000J0D01*
G01*
X120300000Y-122635000D01*
G75*
G02*
X120450000Y-122785000I0J-150000D01*
G01*
G37*
G36*
G01*
X120450000Y-124055000D02*
X120450000Y-124355000D01*
G75*
G02*
X120300000Y-124505000I-150000J0D01*
G01*
X118650000Y-124505000D01*
G75*
G02*
X118500000Y-124355000I0J150000D01*
G01*
X118500000Y-124055000D01*
G75*
G02*
X118650000Y-123905000I150000J0D01*
G01*
X120300000Y-123905000D01*
G75*
G02*
X120450000Y-124055000I0J-150000D01*
G01*
G37*
%TD*%
M02*
