M48
; DRILL file {KiCad (5.1.8)-1} date 11/13/21 22:26:41
; FORMAT={-:-/ absolute / metric / decimal}
; #@! TF.CreationDate,2021-11-13T22:26:41+08:00
; #@! TF.GenerationSoftware,Kicad,Pcbnew,(5.1.8)-1
; #@! TF.FileFunction,Plated,1,2,PTH
FMAT,2
METRIC
T1C0.300
T2C0.400
T3C0.600
T4C0.800
%
G90
G05
T1
X90.8Y-107.447
X91.0Y-120.6
X91.5Y-116.4
X91.516Y-107.803
X92.3Y-108.3
X92.3Y-113.4
X100.1Y-108.6
X102.9Y-109.9
X103.4Y-127.8
X104.4Y-114.1
X105.1Y-100.4
X105.9Y-117.8
X105.9Y-106.1
X107.2Y-123.4
X107.2Y-126.1
X107.3Y-118.8
X108.2Y-103.2
X108.3Y-118.675
X109.4Y-113.2
X110.599Y-126.362
X110.6Y-122.3
X111.4Y-119.3
X111.7Y-117.1
X111.9Y-112.0
X112.8Y-118.6
X113.0Y-124.2
X116.5Y-113.5
X120.788Y-121.386
X120.895Y-120.395
X120.9Y-122.2
X120.9Y-123.7
X121.1Y-104.7
X123.4Y-115.2
X123.766Y-122.849
T2
X101.0Y-102.6
X101.3Y-101.4
X116.4Y-105.2
X116.4Y-106.4
X117.7Y-120.025
X118.3Y-126.0
X120.9Y-116.2
X124.5Y-119.7
T4
X117.1Y-101.3
X119.1Y-101.3
X121.1Y-101.3
X123.1Y-101.3
X125.1Y-101.3
X127.1Y-101.3
T3
X125.72Y-120.28
X125.92Y-120.28
X126.12Y-120.28
X126.32Y-120.28
X126.52Y-120.28
X126.82Y-120.28
X125.72Y-128.92
X125.92Y-128.92
X126.12Y-128.92
X126.32Y-128.92
X126.52Y-128.92
X126.82Y-128.92
X130.15Y-120.28
X130.35Y-120.28
X130.55Y-120.28
X130.75Y-120.28
X130.15Y-128.92
X130.35Y-128.92
X130.55Y-128.92
X130.75Y-128.92
T0
M30
