%TF.GenerationSoftware,KiCad,Pcbnew,(5.1.8)-1*%
%TF.CreationDate,2021-11-13T22:26:41+08:00*%
%TF.ProjectId,wifiaudiorx,77696669-6175-4646-996f-72782e6b6963,rev?*%
%TF.SameCoordinates,Original*%
%TF.FileFunction,Copper,L2,Bot*%
%TF.FilePolarity,Positive*%
%FSLAX46Y46*%
G04 Gerber Fmt 4.6, Leading zero omitted, Abs format (unit mm)*
G04 Created by KiCad (PCBNEW (5.1.8)-1) date 2021-11-13 22:26:41*
%MOMM*%
%LPD*%
G01*
G04 APERTURE LIST*
%TA.AperFunction,ComponentPad*%
%ADD10O,1.350000X1.350000*%
%TD*%
%TA.AperFunction,ComponentPad*%
%ADD11R,1.350000X1.350000*%
%TD*%
%TA.AperFunction,ComponentPad*%
%ADD12O,2.100000X1.000000*%
%TD*%
%TA.AperFunction,ComponentPad*%
%ADD13O,1.600000X1.000000*%
%TD*%
%TA.AperFunction,SMDPad,CuDef*%
%ADD14R,2.500000X2.500000*%
%TD*%
%TA.AperFunction,ViaPad*%
%ADD15C,0.600000*%
%TD*%
%TA.AperFunction,ViaPad*%
%ADD16C,0.800000*%
%TD*%
%TA.AperFunction,Conductor*%
%ADD17C,0.500000*%
%TD*%
%TA.AperFunction,Conductor*%
%ADD18C,0.400000*%
%TD*%
%TA.AperFunction,Conductor*%
%ADD19C,0.250000*%
%TD*%
%TA.AperFunction,Conductor*%
%ADD20C,0.254000*%
%TD*%
%TA.AperFunction,Conductor*%
%ADD21C,0.350000*%
%TD*%
%ADD22C,0.300000*%
%ADD23C,0.350000*%
%ADD24O,1.700000X0.600000*%
%ADD25O,1.200000X0.600000*%
G04 APERTURE END LIST*
D10*
%TO.P,J8,6*%
%TO.N,TXD*%
X127100000Y-101300000D03*
%TO.P,J8,5*%
%TO.N,RXD*%
X125100000Y-101300000D03*
%TO.P,J8,4*%
%TO.N,IO0*%
X123100000Y-101300000D03*
%TO.P,J8,3*%
%TO.N,EN*%
X121100000Y-101300000D03*
%TO.P,J8,2*%
%TO.N,GND*%
X119100000Y-101300000D03*
D11*
%TO.P,J8,1*%
%TO.N,+5V*%
X117100000Y-101300000D03*
%TD*%
D12*
%TO.P,J6,S1*%
%TO.N,GND*%
X126270000Y-120280000D03*
X126270000Y-128920000D03*
D13*
X130450000Y-128920000D03*
X130450000Y-120280000D03*
%TD*%
D14*
%TO.P,J5,1*%
%TO.N,GND*%
X128900000Y-122500000D03*
%TD*%
%TO.P,J4,1*%
%TO.N,BAT*%
X128900000Y-126700000D03*
%TD*%
D15*
%TO.N,+3V3*%
X107200000Y-126100000D03*
X107200000Y-123400000D03*
X105899992Y-106100000D03*
X105899990Y-117800010D03*
%TO.N,OR*%
X91000000Y-120600000D03*
X90800007Y-107447087D03*
%TO.N,OL*%
X91500000Y-116400000D03*
X91516419Y-107803134D03*
%TO.N,Net-(J6-PadB5)*%
X123766171Y-122848864D03*
X120900000Y-122199988D03*
D16*
%TO.N,+5V*%
X124500000Y-119700000D03*
%TO.N,BAT*%
X118300000Y-126000000D03*
X117700004Y-120025010D03*
D15*
%TO.N,Net-(C4-Pad1)*%
X110599996Y-122300000D03*
X113000006Y-124200000D03*
X120894984Y-120395000D03*
%TO.N,IO0*%
X112800004Y-118600000D03*
D16*
X120900000Y-116200000D03*
%TO.N,Net-(R15-Pad2)*%
X101000000Y-102600000D03*
X116400000Y-106399992D03*
%TO.N,Net-(R16-Pad2)*%
X116400000Y-105200000D03*
X101300000Y-101400000D03*
D15*
%TO.N,ADC*%
X116500000Y-113500000D03*
X108300000Y-118674990D03*
%TO.N,DOUT*%
X109400000Y-113200000D03*
X111900000Y-112000000D03*
%TO.N,Net-(J7-Pad1)*%
X111700000Y-117100000D03*
X123400000Y-115200000D03*
%TO.N,GND*%
X121100000Y-104700000D03*
X120900000Y-123700000D03*
X120788388Y-121385999D03*
X110598744Y-126361759D03*
X103400000Y-127800002D03*
X107300000Y-118800000D03*
X111400000Y-119300002D03*
X105100000Y-100400000D03*
X108200000Y-103200000D03*
X102900000Y-109900000D03*
X104400000Y-114100000D03*
%TO.N,GNDA*%
X100100000Y-108600000D03*
X92300000Y-108300000D03*
X92300000Y-113400000D03*
%TD*%
D17*
%TO.N,+3V3*%
X107200000Y-126100000D02*
X107200000Y-123400000D01*
D18*
X105899992Y-106100000D02*
X105899992Y-117800008D01*
X105899992Y-117800008D02*
X105899990Y-117800010D01*
%TO.N,OR*%
X90800000Y-107447094D02*
X90800007Y-107447087D01*
X90800000Y-120400000D02*
X90800000Y-107447094D01*
X91000000Y-120600000D02*
X90800000Y-120400000D01*
%TO.N,OL*%
X91500000Y-116400000D02*
X91500000Y-107819553D01*
X91500000Y-107819553D02*
X91516419Y-107803134D01*
D19*
%TO.N,Net-(J6-PadB5)*%
X123117295Y-122199988D02*
X120900000Y-122199988D01*
X123766171Y-122848864D02*
X123117295Y-122199988D01*
D17*
%TO.N,+5V*%
X124949990Y-119250010D02*
X124500000Y-119700000D01*
X125707992Y-119250010D02*
X124949990Y-119250010D01*
X129450001Y-115508001D02*
X125707992Y-119250010D01*
X129450001Y-114439999D02*
X129450001Y-115508001D01*
X117100000Y-102089998D02*
X129450001Y-114439999D01*
X117100000Y-101300000D02*
X117100000Y-102089998D01*
%TO.N,BAT*%
X118800000Y-126500000D02*
X118300000Y-126000000D01*
X128700000Y-126500000D02*
X118800000Y-126500000D01*
X128900000Y-126700000D02*
X128700000Y-126500000D01*
X118300000Y-126000000D02*
X117700004Y-125400004D01*
X117700004Y-125400004D02*
X117700004Y-120025010D01*
D18*
%TO.N,Net-(C4-Pad1)*%
X112000000Y-124200000D02*
X113000006Y-124200000D01*
X110599996Y-122799996D02*
X112000000Y-124200000D01*
X110599996Y-122300000D02*
X110599996Y-122799996D01*
D19*
X119799984Y-119300000D02*
X120894984Y-120395000D01*
X117200000Y-119300000D02*
X119799984Y-119300000D01*
X113000006Y-123499994D02*
X117200000Y-119300000D01*
X113000006Y-124200000D02*
X113000006Y-123499994D01*
D18*
%TO.N,IO0*%
X112800004Y-118600000D02*
X118500000Y-118600000D01*
X118500000Y-118600000D02*
X120900000Y-116200000D01*
%TO.N,Net-(R15-Pad2)*%
X114900008Y-104900000D02*
X116400000Y-106399992D01*
X103300000Y-104900000D02*
X114900008Y-104900000D01*
X101000000Y-102600000D02*
X103300000Y-104900000D01*
%TO.N,Net-(R16-Pad2)*%
X104100000Y-104200000D02*
X101300000Y-101400000D01*
X115400000Y-104200000D02*
X104100000Y-104200000D01*
X116400000Y-105200000D02*
X115400000Y-104200000D01*
%TO.N,ADC*%
X113474990Y-113500000D02*
X108300000Y-118674990D01*
X116500000Y-113500000D02*
X113474990Y-113500000D01*
%TO.N,DOUT*%
X110700000Y-113200000D02*
X111900000Y-112000000D01*
X109400000Y-113200000D02*
X110700000Y-113200000D01*
%TO.N,Net-(J7-Pad1)*%
X111700000Y-117100000D02*
X113600000Y-115200000D01*
X113600000Y-115200000D02*
X123400000Y-115200000D01*
D17*
%TO.N,GND*%
X128900000Y-121700000D02*
X128900000Y-122500000D01*
X127480000Y-120280000D02*
X128900000Y-121700000D01*
X126270000Y-120280000D02*
X127480000Y-120280000D01*
D19*
X119999995Y-122174392D02*
X120788388Y-121385999D01*
X120900000Y-123700000D02*
X119999995Y-122799995D01*
X119999995Y-122799995D02*
X119999995Y-122174392D01*
X109160501Y-127800002D02*
X103400000Y-127800002D01*
X110598744Y-126361759D02*
X109160501Y-127800002D01*
X107800000Y-119300000D02*
X111399998Y-119300000D01*
X111399998Y-119300000D02*
X111400000Y-119300002D01*
X107300000Y-118800000D02*
X107800000Y-119300000D01*
%TD*%
D20*
%TO.N,GNDA*%
X99873000Y-106700000D02*
X99875440Y-106724776D01*
X99882667Y-106748601D01*
X99894403Y-106770557D01*
X99910197Y-106789803D01*
X99929443Y-106805597D01*
X99951399Y-106817333D01*
X99975224Y-106824560D01*
X100000000Y-106827000D01*
X100873000Y-106827000D01*
X100873000Y-129340000D01*
X90660000Y-129340000D01*
X90660000Y-126338589D01*
X93715000Y-126338589D01*
X93715000Y-126611411D01*
X93768225Y-126878989D01*
X93872629Y-127131043D01*
X94024201Y-127357886D01*
X94217114Y-127550799D01*
X94443957Y-127702371D01*
X94696011Y-127806775D01*
X94963589Y-127860000D01*
X95236411Y-127860000D01*
X95503989Y-127806775D01*
X95756043Y-127702371D01*
X95982886Y-127550799D01*
X96175799Y-127357886D01*
X96327371Y-127131043D01*
X96431775Y-126878989D01*
X96485000Y-126611411D01*
X96485000Y-126338589D01*
X96431775Y-126071011D01*
X96327371Y-125818957D01*
X96175799Y-125592114D01*
X95982886Y-125399201D01*
X95756043Y-125247629D01*
X95503989Y-125143225D01*
X95236411Y-125090000D01*
X94963589Y-125090000D01*
X94696011Y-125143225D01*
X94443957Y-125247629D01*
X94217114Y-125399201D01*
X94024201Y-125592114D01*
X93872629Y-125818957D01*
X93768225Y-126071011D01*
X93715000Y-126338589D01*
X90660000Y-126338589D01*
X90660000Y-121471204D01*
X90727271Y-121499068D01*
X90907911Y-121535000D01*
X91092089Y-121535000D01*
X91272729Y-121499068D01*
X91442889Y-121428586D01*
X91596028Y-121326262D01*
X91726262Y-121196028D01*
X91828586Y-121042889D01*
X91899068Y-120872729D01*
X91935000Y-120692089D01*
X91935000Y-120507911D01*
X91899068Y-120327271D01*
X91828586Y-120157111D01*
X91726262Y-120003972D01*
X91635000Y-119912710D01*
X91635000Y-119338589D01*
X93715000Y-119338589D01*
X93715000Y-119611411D01*
X93768225Y-119878989D01*
X93872629Y-120131043D01*
X94024201Y-120357886D01*
X94217114Y-120550799D01*
X94443957Y-120702371D01*
X94696011Y-120806775D01*
X94963589Y-120860000D01*
X95236411Y-120860000D01*
X95503989Y-120806775D01*
X95756043Y-120702371D01*
X95982886Y-120550799D01*
X96175799Y-120357886D01*
X96327371Y-120131043D01*
X96431775Y-119878989D01*
X96485000Y-119611411D01*
X96485000Y-119338589D01*
X96431775Y-119071011D01*
X96327371Y-118818957D01*
X96175799Y-118592114D01*
X95982886Y-118399201D01*
X95756043Y-118247629D01*
X95503989Y-118143225D01*
X95236411Y-118090000D01*
X94963589Y-118090000D01*
X94696011Y-118143225D01*
X94443957Y-118247629D01*
X94217114Y-118399201D01*
X94024201Y-118592114D01*
X93872629Y-118818957D01*
X93768225Y-119071011D01*
X93715000Y-119338589D01*
X91635000Y-119338589D01*
X91635000Y-117326464D01*
X91772729Y-117299068D01*
X91942889Y-117228586D01*
X92096028Y-117126262D01*
X92226262Y-116996028D01*
X92328586Y-116842889D01*
X92399068Y-116672729D01*
X92435000Y-116492089D01*
X92435000Y-116307911D01*
X92399068Y-116127271D01*
X92335000Y-115972596D01*
X92335000Y-108260997D01*
X92345005Y-108246023D01*
X92415487Y-108075863D01*
X92451419Y-107895223D01*
X92451419Y-107711045D01*
X92415487Y-107530405D01*
X92345005Y-107360245D01*
X92242681Y-107207106D01*
X92112447Y-107076872D01*
X91959308Y-106974548D01*
X91789148Y-106904066D01*
X91608508Y-106868134D01*
X91537678Y-106868134D01*
X91526269Y-106851059D01*
X91396035Y-106720825D01*
X91242896Y-106618501D01*
X91072736Y-106548019D01*
X90892096Y-106512087D01*
X90707918Y-106512087D01*
X90660000Y-106521619D01*
X90660000Y-99860000D01*
X99873000Y-99860000D01*
X99873000Y-106700000D01*
%TA.AperFunction,Conductor*%
D21*
G36*
X99873000Y-106700000D02*
G01*
X99875440Y-106724776D01*
X99882667Y-106748601D01*
X99894403Y-106770557D01*
X99910197Y-106789803D01*
X99929443Y-106805597D01*
X99951399Y-106817333D01*
X99975224Y-106824560D01*
X100000000Y-106827000D01*
X100873000Y-106827000D01*
X100873000Y-129340000D01*
X90660000Y-129340000D01*
X90660000Y-126338589D01*
X93715000Y-126338589D01*
X93715000Y-126611411D01*
X93768225Y-126878989D01*
X93872629Y-127131043D01*
X94024201Y-127357886D01*
X94217114Y-127550799D01*
X94443957Y-127702371D01*
X94696011Y-127806775D01*
X94963589Y-127860000D01*
X95236411Y-127860000D01*
X95503989Y-127806775D01*
X95756043Y-127702371D01*
X95982886Y-127550799D01*
X96175799Y-127357886D01*
X96327371Y-127131043D01*
X96431775Y-126878989D01*
X96485000Y-126611411D01*
X96485000Y-126338589D01*
X96431775Y-126071011D01*
X96327371Y-125818957D01*
X96175799Y-125592114D01*
X95982886Y-125399201D01*
X95756043Y-125247629D01*
X95503989Y-125143225D01*
X95236411Y-125090000D01*
X94963589Y-125090000D01*
X94696011Y-125143225D01*
X94443957Y-125247629D01*
X94217114Y-125399201D01*
X94024201Y-125592114D01*
X93872629Y-125818957D01*
X93768225Y-126071011D01*
X93715000Y-126338589D01*
X90660000Y-126338589D01*
X90660000Y-121471204D01*
X90727271Y-121499068D01*
X90907911Y-121535000D01*
X91092089Y-121535000D01*
X91272729Y-121499068D01*
X91442889Y-121428586D01*
X91596028Y-121326262D01*
X91726262Y-121196028D01*
X91828586Y-121042889D01*
X91899068Y-120872729D01*
X91935000Y-120692089D01*
X91935000Y-120507911D01*
X91899068Y-120327271D01*
X91828586Y-120157111D01*
X91726262Y-120003972D01*
X91635000Y-119912710D01*
X91635000Y-119338589D01*
X93715000Y-119338589D01*
X93715000Y-119611411D01*
X93768225Y-119878989D01*
X93872629Y-120131043D01*
X94024201Y-120357886D01*
X94217114Y-120550799D01*
X94443957Y-120702371D01*
X94696011Y-120806775D01*
X94963589Y-120860000D01*
X95236411Y-120860000D01*
X95503989Y-120806775D01*
X95756043Y-120702371D01*
X95982886Y-120550799D01*
X96175799Y-120357886D01*
X96327371Y-120131043D01*
X96431775Y-119878989D01*
X96485000Y-119611411D01*
X96485000Y-119338589D01*
X96431775Y-119071011D01*
X96327371Y-118818957D01*
X96175799Y-118592114D01*
X95982886Y-118399201D01*
X95756043Y-118247629D01*
X95503989Y-118143225D01*
X95236411Y-118090000D01*
X94963589Y-118090000D01*
X94696011Y-118143225D01*
X94443957Y-118247629D01*
X94217114Y-118399201D01*
X94024201Y-118592114D01*
X93872629Y-118818957D01*
X93768225Y-119071011D01*
X93715000Y-119338589D01*
X91635000Y-119338589D01*
X91635000Y-117326464D01*
X91772729Y-117299068D01*
X91942889Y-117228586D01*
X92096028Y-117126262D01*
X92226262Y-116996028D01*
X92328586Y-116842889D01*
X92399068Y-116672729D01*
X92435000Y-116492089D01*
X92435000Y-116307911D01*
X92399068Y-116127271D01*
X92335000Y-115972596D01*
X92335000Y-108260997D01*
X92345005Y-108246023D01*
X92415487Y-108075863D01*
X92451419Y-107895223D01*
X92451419Y-107711045D01*
X92415487Y-107530405D01*
X92345005Y-107360245D01*
X92242681Y-107207106D01*
X92112447Y-107076872D01*
X91959308Y-106974548D01*
X91789148Y-106904066D01*
X91608508Y-106868134D01*
X91537678Y-106868134D01*
X91526269Y-106851059D01*
X91396035Y-106720825D01*
X91242896Y-106618501D01*
X91072736Y-106548019D01*
X90892096Y-106512087D01*
X90707918Y-106512087D01*
X90660000Y-106521619D01*
X90660000Y-99860000D01*
X99873000Y-99860000D01*
X99873000Y-106700000D01*
G37*
%TD.AperFunction*%
%TD*%
D20*
%TO.N,GND*%
X131340001Y-119306345D02*
X131301678Y-119279997D01*
X131095987Y-119191585D01*
X130877000Y-119145000D01*
X130577000Y-119145000D01*
X130577000Y-120153000D01*
X130597000Y-120153000D01*
X130597000Y-120407000D01*
X130577000Y-120407000D01*
X130577000Y-120427000D01*
X130323000Y-120427000D01*
X130323000Y-120407000D01*
X129182046Y-120407000D01*
X129055881Y-120581874D01*
X129098839Y-120701911D01*
X129027000Y-120773750D01*
X129027000Y-122373000D01*
X130626250Y-122373000D01*
X130785000Y-122214250D01*
X130787546Y-121415000D01*
X130877000Y-121415000D01*
X131095987Y-121368415D01*
X131301678Y-121280003D01*
X131340001Y-121253655D01*
X131340001Y-127946345D01*
X131301678Y-127919997D01*
X131095987Y-127831585D01*
X130877000Y-127785000D01*
X130788072Y-127785000D01*
X130788072Y-125450000D01*
X130775812Y-125325518D01*
X130739502Y-125205820D01*
X130680537Y-125095506D01*
X130601185Y-124998815D01*
X130504494Y-124919463D01*
X130394180Y-124860498D01*
X130274482Y-124824188D01*
X130150000Y-124811928D01*
X127650000Y-124811928D01*
X127525518Y-124824188D01*
X127405820Y-124860498D01*
X127295506Y-124919463D01*
X127198815Y-124998815D01*
X127119463Y-125095506D01*
X127060498Y-125205820D01*
X127024188Y-125325518D01*
X127011928Y-125450000D01*
X127011928Y-125615000D01*
X119260804Y-125615000D01*
X119217205Y-125509744D01*
X119103937Y-125340226D01*
X118959774Y-125196063D01*
X118790256Y-125082795D01*
X118601898Y-125004774D01*
X118585004Y-125001414D01*
X118585004Y-120563464D01*
X118617209Y-120515266D01*
X118695230Y-120326908D01*
X118735004Y-120126949D01*
X118735004Y-120060000D01*
X119485183Y-120060000D01*
X119971831Y-120546649D01*
X119995916Y-120667729D01*
X120066398Y-120837889D01*
X120168722Y-120991028D01*
X120298956Y-121121262D01*
X120452095Y-121223586D01*
X120622255Y-121294068D01*
X120641986Y-121297993D01*
X120627271Y-121300920D01*
X120457111Y-121371402D01*
X120303972Y-121473726D01*
X120173738Y-121603960D01*
X120071414Y-121757099D01*
X120000932Y-121927259D01*
X119965000Y-122107899D01*
X119965000Y-122292077D01*
X120000932Y-122472717D01*
X120071414Y-122642877D01*
X120173738Y-122796016D01*
X120303972Y-122926250D01*
X120457111Y-123028574D01*
X120627271Y-123099056D01*
X120807911Y-123134988D01*
X120992089Y-123134988D01*
X121172729Y-123099056D01*
X121342889Y-123028574D01*
X121445535Y-122959988D01*
X122802494Y-122959988D01*
X122843018Y-123000513D01*
X122867103Y-123121593D01*
X122937585Y-123291753D01*
X123039909Y-123444892D01*
X123170143Y-123575126D01*
X123323282Y-123677450D01*
X123493442Y-123747932D01*
X123674082Y-123783864D01*
X123858260Y-123783864D01*
X124038900Y-123747932D01*
X124209060Y-123677450D01*
X124362199Y-123575126D01*
X124492433Y-123444892D01*
X124594757Y-123291753D01*
X124665239Y-123121593D01*
X124701171Y-122940953D01*
X124701171Y-122756775D01*
X124665239Y-122576135D01*
X124594757Y-122405975D01*
X124492433Y-122252836D01*
X124362199Y-122122602D01*
X124209060Y-122020278D01*
X124038900Y-121949796D01*
X123917820Y-121925711D01*
X123681098Y-121688990D01*
X123657296Y-121659987D01*
X123541571Y-121565014D01*
X123409542Y-121494442D01*
X123266281Y-121450985D01*
X123154628Y-121439988D01*
X123154617Y-121439988D01*
X123117295Y-121436312D01*
X123079973Y-121439988D01*
X121445535Y-121439988D01*
X121342889Y-121371402D01*
X121172729Y-121300920D01*
X121152998Y-121296995D01*
X121167713Y-121294068D01*
X121337873Y-121223586D01*
X121491012Y-121121262D01*
X121621246Y-120991028D01*
X121723570Y-120837889D01*
X121794052Y-120667729D01*
X121829984Y-120487089D01*
X121829984Y-120302911D01*
X121794052Y-120122271D01*
X121723570Y-119952111D01*
X121621246Y-119798972D01*
X121491012Y-119668738D01*
X121337873Y-119566414D01*
X121167713Y-119495932D01*
X121046633Y-119471847D01*
X120363788Y-118789002D01*
X120339985Y-118759999D01*
X120224260Y-118665026D01*
X120092231Y-118594454D01*
X119948970Y-118550997D01*
X119837317Y-118540000D01*
X119837306Y-118540000D01*
X119799984Y-118536324D01*
X119762662Y-118540000D01*
X119740868Y-118540000D01*
X121056776Y-117224092D01*
X121201898Y-117195226D01*
X121390256Y-117117205D01*
X121559774Y-117003937D01*
X121703937Y-116859774D01*
X121817205Y-116690256D01*
X121895226Y-116501898D01*
X121935000Y-116301939D01*
X121935000Y-116098061D01*
X121922456Y-116035000D01*
X122972596Y-116035000D01*
X123127271Y-116099068D01*
X123307911Y-116135000D01*
X123492089Y-116135000D01*
X123672729Y-116099068D01*
X123842889Y-116028586D01*
X123996028Y-115926262D01*
X124126262Y-115796028D01*
X124228586Y-115642889D01*
X124299068Y-115472729D01*
X124335000Y-115292089D01*
X124335000Y-115107911D01*
X124299068Y-114927271D01*
X124228586Y-114757111D01*
X124126262Y-114603972D01*
X123996028Y-114473738D01*
X123842889Y-114371414D01*
X123672729Y-114300932D01*
X123492089Y-114265000D01*
X123307911Y-114265000D01*
X123127271Y-114300932D01*
X122972596Y-114365000D01*
X116854977Y-114365000D01*
X116942889Y-114328586D01*
X117096028Y-114226262D01*
X117226262Y-114096028D01*
X117328586Y-113942889D01*
X117399068Y-113772729D01*
X117435000Y-113592089D01*
X117435000Y-113407911D01*
X117399068Y-113227271D01*
X117328586Y-113057111D01*
X117226262Y-112903972D01*
X117096028Y-112773738D01*
X116942889Y-112671414D01*
X116772729Y-112600932D01*
X116592089Y-112565000D01*
X116407911Y-112565000D01*
X116227271Y-112600932D01*
X116072596Y-112665000D01*
X113516008Y-112665000D01*
X113474989Y-112660960D01*
X113433971Y-112665000D01*
X113311301Y-112677082D01*
X113153903Y-112724828D01*
X113008844Y-112802364D01*
X112881699Y-112906709D01*
X112855549Y-112938573D01*
X108011788Y-117782335D01*
X107857111Y-117846404D01*
X107703972Y-117948728D01*
X107573738Y-118078962D01*
X107471414Y-118232101D01*
X107400932Y-118402261D01*
X107365000Y-118582901D01*
X107365000Y-118767079D01*
X107400932Y-118947719D01*
X107471414Y-119117879D01*
X107573738Y-119271018D01*
X107703972Y-119401252D01*
X107857111Y-119503576D01*
X108027271Y-119574058D01*
X108207911Y-119609990D01*
X108392089Y-119609990D01*
X108572729Y-119574058D01*
X108742889Y-119503576D01*
X108896028Y-119401252D01*
X109026262Y-119271018D01*
X109128586Y-119117879D01*
X109192655Y-118963202D01*
X110797978Y-117357879D01*
X110800932Y-117372729D01*
X110871414Y-117542889D01*
X110973738Y-117696028D01*
X111103972Y-117826262D01*
X111257111Y-117928586D01*
X111427271Y-117999068D01*
X111607911Y-118035000D01*
X111792089Y-118035000D01*
X111972729Y-117999068D01*
X112142889Y-117928586D01*
X112161691Y-117916023D01*
X112073742Y-118003972D01*
X111971418Y-118157111D01*
X111900936Y-118327271D01*
X111865004Y-118507911D01*
X111865004Y-118692089D01*
X111900936Y-118872729D01*
X111971418Y-119042889D01*
X112073742Y-119196028D01*
X112203976Y-119326262D01*
X112357115Y-119428586D01*
X112527275Y-119499068D01*
X112707915Y-119535000D01*
X112892093Y-119535000D01*
X113072733Y-119499068D01*
X113227408Y-119435000D01*
X115990197Y-119435000D01*
X112489004Y-122936195D01*
X112460006Y-122959993D01*
X112436208Y-122988991D01*
X112436207Y-122988992D01*
X112365032Y-123075718D01*
X112294460Y-123207748D01*
X112288769Y-123226510D01*
X112269826Y-123288957D01*
X111508112Y-122527244D01*
X111534996Y-122392089D01*
X111534996Y-122207911D01*
X111499064Y-122027271D01*
X111428582Y-121857111D01*
X111326258Y-121703972D01*
X111196024Y-121573738D01*
X111042885Y-121471414D01*
X110872725Y-121400932D01*
X110692085Y-121365000D01*
X110507907Y-121365000D01*
X110327267Y-121400932D01*
X110157107Y-121471414D01*
X110003968Y-121573738D01*
X109873734Y-121703972D01*
X109771410Y-121857111D01*
X109700928Y-122027271D01*
X109664996Y-122207911D01*
X109664996Y-122392089D01*
X109700928Y-122572729D01*
X109764996Y-122727404D01*
X109764996Y-122758978D01*
X109760956Y-122799996D01*
X109764996Y-122841014D01*
X109764996Y-122841015D01*
X109777078Y-122963685D01*
X109824824Y-123121083D01*
X109825097Y-123121593D01*
X109901751Y-123265000D01*
X109902361Y-123266142D01*
X110006706Y-123393287D01*
X110038570Y-123419437D01*
X111380563Y-124761432D01*
X111406709Y-124793291D01*
X111533854Y-124897636D01*
X111678913Y-124975172D01*
X111836311Y-125022918D01*
X111958981Y-125035000D01*
X111958982Y-125035000D01*
X112000000Y-125039040D01*
X112041018Y-125035000D01*
X112572602Y-125035000D01*
X112727277Y-125099068D01*
X112907917Y-125135000D01*
X113092095Y-125135000D01*
X113272735Y-125099068D01*
X113442895Y-125028586D01*
X113596034Y-124926262D01*
X113726268Y-124796028D01*
X113828592Y-124642889D01*
X113899074Y-124472729D01*
X113935006Y-124292089D01*
X113935006Y-124107911D01*
X113899074Y-123927271D01*
X113828592Y-123757111D01*
X113824225Y-123750576D01*
X116815005Y-120759798D01*
X116815004Y-125356535D01*
X116810723Y-125400004D01*
X116815004Y-125443473D01*
X116815004Y-125443480D01*
X116826216Y-125557318D01*
X116827809Y-125573494D01*
X116840400Y-125615000D01*
X116878415Y-125740316D01*
X116960593Y-125894062D01*
X117071187Y-126028821D01*
X117104960Y-126056538D01*
X117293465Y-126245043D01*
X117304774Y-126301898D01*
X117382795Y-126490256D01*
X117496063Y-126659774D01*
X117640226Y-126803937D01*
X117809744Y-126917205D01*
X117998102Y-126995226D01*
X118054957Y-127006535D01*
X118143466Y-127095044D01*
X118171183Y-127128817D01*
X118305941Y-127239411D01*
X118459687Y-127321589D01*
X118626510Y-127372195D01*
X118756523Y-127385000D01*
X118756531Y-127385000D01*
X118800000Y-127389281D01*
X118843469Y-127385000D01*
X119511683Y-127385000D01*
X119508353Y-127387225D01*
X119357225Y-127538353D01*
X119238485Y-127716060D01*
X119156696Y-127913517D01*
X119115000Y-128123137D01*
X119115000Y-128336863D01*
X119156696Y-128546483D01*
X119238485Y-128743940D01*
X119357225Y-128921647D01*
X119508353Y-129072775D01*
X119686060Y-129191515D01*
X119883517Y-129273304D01*
X120093137Y-129315000D01*
X120306863Y-129315000D01*
X120516483Y-129273304D01*
X120713940Y-129191515D01*
X120891647Y-129072775D01*
X121042775Y-128921647D01*
X121161515Y-128743940D01*
X121243304Y-128546483D01*
X121285000Y-128336863D01*
X121285000Y-128123137D01*
X121243304Y-127913517D01*
X121161515Y-127716060D01*
X121042775Y-127538353D01*
X120891647Y-127387225D01*
X120888317Y-127385000D01*
X125842078Y-127385000D01*
X125840000Y-127395448D01*
X125840000Y-127584552D01*
X125876892Y-127770022D01*
X125883096Y-127785000D01*
X125593000Y-127785000D01*
X125374013Y-127831585D01*
X125168322Y-127919997D01*
X124983831Y-128046839D01*
X124827631Y-128207236D01*
X124705724Y-128395024D01*
X124625881Y-128618126D01*
X124752046Y-128793000D01*
X126143000Y-128793000D01*
X126143000Y-128773000D01*
X126397000Y-128773000D01*
X126397000Y-128793000D01*
X127787954Y-128793000D01*
X127914119Y-128618126D01*
X127903363Y-128588072D01*
X129066637Y-128588072D01*
X129055881Y-128618126D01*
X129182046Y-128793000D01*
X130323000Y-128793000D01*
X130323000Y-128773000D01*
X130577000Y-128773000D01*
X130577000Y-128793000D01*
X130597000Y-128793000D01*
X130597000Y-129047000D01*
X130577000Y-129047000D01*
X130577000Y-129067000D01*
X130323000Y-129067000D01*
X130323000Y-129047000D01*
X129182046Y-129047000D01*
X129055881Y-129221874D01*
X129098156Y-129340000D01*
X127871844Y-129340000D01*
X127914119Y-129221874D01*
X127787954Y-129047000D01*
X126397000Y-129047000D01*
X126397000Y-129067000D01*
X126143000Y-129067000D01*
X126143000Y-129047000D01*
X124752046Y-129047000D01*
X124625881Y-129221874D01*
X124668156Y-129340000D01*
X101824216Y-129340000D01*
X101819082Y-128123137D01*
X116115000Y-128123137D01*
X116115000Y-128336863D01*
X116156696Y-128546483D01*
X116238485Y-128743940D01*
X116357225Y-128921647D01*
X116508353Y-129072775D01*
X116686060Y-129191515D01*
X116883517Y-129273304D01*
X117093137Y-129315000D01*
X117306863Y-129315000D01*
X117516483Y-129273304D01*
X117713940Y-129191515D01*
X117891647Y-129072775D01*
X118042775Y-128921647D01*
X118161515Y-128743940D01*
X118243304Y-128546483D01*
X118285000Y-128336863D01*
X118285000Y-128123137D01*
X118243304Y-127913517D01*
X118161515Y-127716060D01*
X118042775Y-127538353D01*
X117891647Y-127387225D01*
X117713940Y-127268485D01*
X117516483Y-127186696D01*
X117306863Y-127145000D01*
X117093137Y-127145000D01*
X116883517Y-127186696D01*
X116686060Y-127268485D01*
X116508353Y-127387225D01*
X116357225Y-127538353D01*
X116238485Y-127716060D01*
X116156696Y-127913517D01*
X116115000Y-128123137D01*
X101819082Y-128123137D01*
X101798765Y-123307911D01*
X106265000Y-123307911D01*
X106265000Y-123492089D01*
X106300932Y-123672729D01*
X106315001Y-123706695D01*
X106315000Y-125793307D01*
X106300932Y-125827271D01*
X106265000Y-126007911D01*
X106265000Y-126192089D01*
X106300932Y-126372729D01*
X106371414Y-126542889D01*
X106473738Y-126696028D01*
X106603972Y-126826262D01*
X106757111Y-126928586D01*
X106927271Y-126999068D01*
X107107911Y-127035000D01*
X107292089Y-127035000D01*
X107472729Y-126999068D01*
X107642889Y-126928586D01*
X107796028Y-126826262D01*
X107926262Y-126696028D01*
X108028586Y-126542889D01*
X108099068Y-126372729D01*
X108135000Y-126192089D01*
X108135000Y-126007911D01*
X108099068Y-125827271D01*
X108085000Y-125793308D01*
X108085000Y-123706692D01*
X108099068Y-123672729D01*
X108135000Y-123492089D01*
X108135000Y-123307911D01*
X108099068Y-123127271D01*
X108028586Y-122957111D01*
X107926262Y-122803972D01*
X107796028Y-122673738D01*
X107642889Y-122571414D01*
X107472729Y-122500932D01*
X107292089Y-122465000D01*
X107107911Y-122465000D01*
X106927271Y-122500932D01*
X106757111Y-122571414D01*
X106603972Y-122673738D01*
X106473738Y-122803972D01*
X106371414Y-122957111D01*
X106300932Y-123127271D01*
X106265000Y-123307911D01*
X101798765Y-123307911D01*
X101726999Y-106299464D01*
X101724454Y-106274698D01*
X101717127Y-106250905D01*
X101705298Y-106228998D01*
X101689423Y-106209819D01*
X101670111Y-106194107D01*
X101648105Y-106182463D01*
X101624251Y-106175337D01*
X101600000Y-106173000D01*
X100427000Y-106173000D01*
X100427000Y-103461917D01*
X100509744Y-103517205D01*
X100698102Y-103595226D01*
X100843225Y-103624093D01*
X102680559Y-105461427D01*
X102706709Y-105493291D01*
X102831928Y-105596055D01*
X102833854Y-105597636D01*
X102978913Y-105675172D01*
X103136311Y-105722918D01*
X103299999Y-105739040D01*
X103341018Y-105735000D01*
X105039144Y-105735000D01*
X105000924Y-105827271D01*
X104964992Y-106007911D01*
X104964992Y-106192089D01*
X105000924Y-106372729D01*
X105064992Y-106527404D01*
X105064993Y-117372599D01*
X105000922Y-117527281D01*
X104964990Y-117707921D01*
X104964990Y-117892099D01*
X105000922Y-118072739D01*
X105071404Y-118242899D01*
X105173728Y-118396038D01*
X105303962Y-118526272D01*
X105457101Y-118628596D01*
X105627261Y-118699078D01*
X105807901Y-118735010D01*
X105992079Y-118735010D01*
X106172719Y-118699078D01*
X106342879Y-118628596D01*
X106496018Y-118526272D01*
X106626252Y-118396038D01*
X106728576Y-118242899D01*
X106799058Y-118072739D01*
X106834990Y-117892099D01*
X106834990Y-117707921D01*
X106799058Y-117527281D01*
X106734992Y-117372611D01*
X106734992Y-113107911D01*
X108465000Y-113107911D01*
X108465000Y-113292089D01*
X108500932Y-113472729D01*
X108571414Y-113642889D01*
X108673738Y-113796028D01*
X108803972Y-113926262D01*
X108957111Y-114028586D01*
X109127271Y-114099068D01*
X109307911Y-114135000D01*
X109492089Y-114135000D01*
X109672729Y-114099068D01*
X109827404Y-114035000D01*
X110658982Y-114035000D01*
X110700000Y-114039040D01*
X110741018Y-114035000D01*
X110741019Y-114035000D01*
X110863689Y-114022918D01*
X111021087Y-113975172D01*
X111166146Y-113897636D01*
X111293291Y-113793291D01*
X111319446Y-113761421D01*
X112188214Y-112892654D01*
X112342889Y-112828586D01*
X112496028Y-112726262D01*
X112626262Y-112596028D01*
X112728586Y-112442889D01*
X112799068Y-112272729D01*
X112835000Y-112092089D01*
X112835000Y-111907911D01*
X112799068Y-111727271D01*
X112728586Y-111557111D01*
X112626262Y-111403972D01*
X112496028Y-111273738D01*
X112342889Y-111171414D01*
X112172729Y-111100932D01*
X111992089Y-111065000D01*
X111807911Y-111065000D01*
X111627271Y-111100932D01*
X111457111Y-111171414D01*
X111303972Y-111273738D01*
X111173738Y-111403972D01*
X111071414Y-111557111D01*
X111007346Y-111711786D01*
X110354133Y-112365000D01*
X109827404Y-112365000D01*
X109672729Y-112300932D01*
X109492089Y-112265000D01*
X109307911Y-112265000D01*
X109127271Y-112300932D01*
X108957111Y-112371414D01*
X108803972Y-112473738D01*
X108673738Y-112603972D01*
X108571414Y-112757111D01*
X108500932Y-112927271D01*
X108465000Y-113107911D01*
X106734992Y-113107911D01*
X106734992Y-106527404D01*
X106799060Y-106372729D01*
X106834992Y-106192089D01*
X106834992Y-106007911D01*
X106799060Y-105827271D01*
X106760840Y-105735000D01*
X114554141Y-105735000D01*
X115375908Y-106556767D01*
X115404774Y-106701890D01*
X115482795Y-106890248D01*
X115596063Y-107059766D01*
X115740226Y-107203929D01*
X115909744Y-107317197D01*
X116098102Y-107395218D01*
X116298061Y-107434992D01*
X116501939Y-107434992D01*
X116701898Y-107395218D01*
X116890256Y-107317197D01*
X117059774Y-107203929D01*
X117203937Y-107059766D01*
X117317205Y-106890248D01*
X117395226Y-106701890D01*
X117435000Y-106501931D01*
X117435000Y-106298053D01*
X117395226Y-106098094D01*
X117317205Y-105909736D01*
X117243879Y-105799996D01*
X117317205Y-105690256D01*
X117395226Y-105501898D01*
X117435000Y-105301939D01*
X117435000Y-105098061D01*
X117395226Y-104898102D01*
X117317205Y-104709744D01*
X117203937Y-104540226D01*
X117059774Y-104396063D01*
X116890256Y-104282795D01*
X116701898Y-104204774D01*
X116556776Y-104175908D01*
X116019445Y-103638578D01*
X115993291Y-103606709D01*
X115866146Y-103502364D01*
X115721087Y-103424828D01*
X115563689Y-103377082D01*
X115441019Y-103365000D01*
X115441018Y-103365000D01*
X115400000Y-103360960D01*
X115358982Y-103365000D01*
X104445868Y-103365000D01*
X102324093Y-101243225D01*
X102295226Y-101098102D01*
X102217205Y-100909744D01*
X102103937Y-100740226D01*
X101988711Y-100625000D01*
X115786928Y-100625000D01*
X115786928Y-101975000D01*
X115799188Y-102099482D01*
X115835498Y-102219180D01*
X115894463Y-102329494D01*
X115973815Y-102426185D01*
X116070506Y-102505537D01*
X116180820Y-102564502D01*
X116300518Y-102600812D01*
X116380832Y-102608722D01*
X116443468Y-102685044D01*
X116443471Y-102685047D01*
X116471184Y-102718815D01*
X116504952Y-102746528D01*
X128565001Y-114806578D01*
X128565002Y-115141421D01*
X125341414Y-118365010D01*
X124993459Y-118365010D01*
X124949990Y-118360729D01*
X124906521Y-118365010D01*
X124906513Y-118365010D01*
X124791296Y-118376358D01*
X124776499Y-118377815D01*
X124725893Y-118393167D01*
X124609677Y-118428421D01*
X124455931Y-118510599D01*
X124321173Y-118621193D01*
X124293458Y-118654964D01*
X124254957Y-118693465D01*
X124198102Y-118704774D01*
X124009744Y-118782795D01*
X123840226Y-118896063D01*
X123696063Y-119040226D01*
X123582795Y-119209744D01*
X123504774Y-119398102D01*
X123465000Y-119598061D01*
X123465000Y-119801939D01*
X123504774Y-120001898D01*
X123582795Y-120190256D01*
X123696063Y-120359774D01*
X123840226Y-120503937D01*
X124009744Y-120617205D01*
X124198102Y-120695226D01*
X124398061Y-120735000D01*
X124601939Y-120735000D01*
X124675448Y-120720378D01*
X124705724Y-120804976D01*
X124827631Y-120992764D01*
X124983831Y-121153161D01*
X125168322Y-121280003D01*
X125374013Y-121368415D01*
X125593000Y-121415000D01*
X125883096Y-121415000D01*
X125876892Y-121429978D01*
X125840000Y-121615448D01*
X125840000Y-121804552D01*
X125876892Y-121990022D01*
X125949259Y-122164731D01*
X126054319Y-122321964D01*
X126188036Y-122455681D01*
X126345269Y-122560741D01*
X126519978Y-122633108D01*
X126705448Y-122670000D01*
X126894552Y-122670000D01*
X127080022Y-122633108D01*
X127094763Y-122627002D01*
X127173748Y-122627002D01*
X127015000Y-122785750D01*
X127011928Y-123750000D01*
X127024188Y-123874482D01*
X127060498Y-123994180D01*
X127119463Y-124104494D01*
X127198815Y-124201185D01*
X127295506Y-124280537D01*
X127405820Y-124339502D01*
X127525518Y-124375812D01*
X127650000Y-124388072D01*
X128614250Y-124385000D01*
X128773000Y-124226250D01*
X128773000Y-122627000D01*
X129027000Y-122627000D01*
X129027000Y-124226250D01*
X129185750Y-124385000D01*
X130150000Y-124388072D01*
X130274482Y-124375812D01*
X130394180Y-124339502D01*
X130504494Y-124280537D01*
X130601185Y-124201185D01*
X130680537Y-124104494D01*
X130739502Y-123994180D01*
X130775812Y-123874482D01*
X130788072Y-123750000D01*
X130785000Y-122785750D01*
X130626250Y-122627000D01*
X129027000Y-122627000D01*
X128773000Y-122627000D01*
X128753000Y-122627000D01*
X128753000Y-122373000D01*
X128773000Y-122373000D01*
X128773000Y-120773750D01*
X128614250Y-120615000D01*
X127903075Y-120612734D01*
X127914119Y-120581874D01*
X127787954Y-120407000D01*
X126397000Y-120407000D01*
X126397000Y-120427000D01*
X126143000Y-120427000D01*
X126143000Y-120407000D01*
X126123000Y-120407000D01*
X126123000Y-120153000D01*
X126143000Y-120153000D01*
X126143000Y-120133000D01*
X126397000Y-120133000D01*
X126397000Y-120153000D01*
X127787954Y-120153000D01*
X127914119Y-119978126D01*
X129055881Y-119978126D01*
X129182046Y-120153000D01*
X130323000Y-120153000D01*
X130323000Y-119145000D01*
X130023000Y-119145000D01*
X129804013Y-119191585D01*
X129598322Y-119279997D01*
X129413831Y-119406839D01*
X129257631Y-119567236D01*
X129135724Y-119755024D01*
X129055881Y-119978126D01*
X127914119Y-119978126D01*
X127834276Y-119755024D01*
X127712369Y-119567236D01*
X127556169Y-119406839D01*
X127371678Y-119279997D01*
X127165987Y-119191585D01*
X127043955Y-119165625D01*
X130045050Y-116164531D01*
X130078818Y-116136818D01*
X130110626Y-116098061D01*
X130189412Y-116002060D01*
X130271589Y-115848315D01*
X130271590Y-115848314D01*
X130322196Y-115681491D01*
X130335001Y-115551478D01*
X130335001Y-115551470D01*
X130339282Y-115508001D01*
X130335001Y-115464532D01*
X130335001Y-114483468D01*
X130339282Y-114439999D01*
X130335001Y-114396530D01*
X130335001Y-114396522D01*
X130322196Y-114266509D01*
X130271590Y-114099686D01*
X130189412Y-113945940D01*
X130078818Y-113811182D01*
X130045052Y-113783471D01*
X118807153Y-102545573D01*
X118973000Y-102444224D01*
X118973000Y-101427000D01*
X118953000Y-101427000D01*
X118953000Y-101173000D01*
X118973000Y-101173000D01*
X118973000Y-100155776D01*
X119227000Y-100155776D01*
X119227000Y-101173000D01*
X119247000Y-101173000D01*
X119247000Y-101427000D01*
X119227000Y-101427000D01*
X119227000Y-102444224D01*
X119429400Y-102567910D01*
X119530528Y-102537238D01*
X119763629Y-102429473D01*
X119971227Y-102278303D01*
X120093319Y-102145940D01*
X120264923Y-102317544D01*
X120479482Y-102460907D01*
X120717887Y-102559658D01*
X120970976Y-102610000D01*
X121229024Y-102610000D01*
X121482113Y-102559658D01*
X121720518Y-102460907D01*
X121935077Y-102317544D01*
X122100000Y-102152621D01*
X122264923Y-102317544D01*
X122479482Y-102460907D01*
X122717887Y-102559658D01*
X122970976Y-102610000D01*
X123229024Y-102610000D01*
X123482113Y-102559658D01*
X123720518Y-102460907D01*
X123935077Y-102317544D01*
X124100000Y-102152621D01*
X124264923Y-102317544D01*
X124479482Y-102460907D01*
X124717887Y-102559658D01*
X124970976Y-102610000D01*
X125229024Y-102610000D01*
X125482113Y-102559658D01*
X125720518Y-102460907D01*
X125935077Y-102317544D01*
X126100000Y-102152621D01*
X126264923Y-102317544D01*
X126479482Y-102460907D01*
X126717887Y-102559658D01*
X126970976Y-102610000D01*
X127229024Y-102610000D01*
X127482113Y-102559658D01*
X127720518Y-102460907D01*
X127935077Y-102317544D01*
X128117544Y-102135077D01*
X128260907Y-101920518D01*
X128359658Y-101682113D01*
X128410000Y-101429024D01*
X128410000Y-101170976D01*
X128359658Y-100917887D01*
X128260907Y-100679482D01*
X128117544Y-100464923D01*
X127935077Y-100282456D01*
X127720518Y-100139093D01*
X127482113Y-100040342D01*
X127229024Y-99990000D01*
X126970976Y-99990000D01*
X126717887Y-100040342D01*
X126479482Y-100139093D01*
X126264923Y-100282456D01*
X126100000Y-100447379D01*
X125935077Y-100282456D01*
X125720518Y-100139093D01*
X125482113Y-100040342D01*
X125229024Y-99990000D01*
X124970976Y-99990000D01*
X124717887Y-100040342D01*
X124479482Y-100139093D01*
X124264923Y-100282456D01*
X124100000Y-100447379D01*
X123935077Y-100282456D01*
X123720518Y-100139093D01*
X123482113Y-100040342D01*
X123229024Y-99990000D01*
X122970976Y-99990000D01*
X122717887Y-100040342D01*
X122479482Y-100139093D01*
X122264923Y-100282456D01*
X122100000Y-100447379D01*
X121935077Y-100282456D01*
X121720518Y-100139093D01*
X121482113Y-100040342D01*
X121229024Y-99990000D01*
X120970976Y-99990000D01*
X120717887Y-100040342D01*
X120479482Y-100139093D01*
X120264923Y-100282456D01*
X120093319Y-100454060D01*
X119971227Y-100321697D01*
X119763629Y-100170527D01*
X119530528Y-100062762D01*
X119429400Y-100032090D01*
X119227000Y-100155776D01*
X118973000Y-100155776D01*
X118770600Y-100032090D01*
X118669472Y-100062762D01*
X118436371Y-100170527D01*
X118303119Y-100267559D01*
X118226185Y-100173815D01*
X118129494Y-100094463D01*
X118019180Y-100035498D01*
X117899482Y-99999188D01*
X117775000Y-99986928D01*
X116425000Y-99986928D01*
X116300518Y-99999188D01*
X116180820Y-100035498D01*
X116070506Y-100094463D01*
X115973815Y-100173815D01*
X115894463Y-100270506D01*
X115835498Y-100380820D01*
X115799188Y-100500518D01*
X115786928Y-100625000D01*
X101988711Y-100625000D01*
X101959774Y-100596063D01*
X101790256Y-100482795D01*
X101601898Y-100404774D01*
X101401939Y-100365000D01*
X101198061Y-100365000D01*
X100998102Y-100404774D01*
X100809744Y-100482795D01*
X100640226Y-100596063D01*
X100496063Y-100740226D01*
X100427000Y-100843586D01*
X100427000Y-99860000D01*
X131340000Y-99860000D01*
X131340001Y-119306345D01*
%TA.AperFunction,Conductor*%
D21*
G36*
X131340001Y-119306345D02*
G01*
X131301678Y-119279997D01*
X131095987Y-119191585D01*
X130877000Y-119145000D01*
X130577000Y-119145000D01*
X130577000Y-120153000D01*
X130597000Y-120153000D01*
X130597000Y-120407000D01*
X130577000Y-120407000D01*
X130577000Y-120427000D01*
X130323000Y-120427000D01*
X130323000Y-120407000D01*
X129182046Y-120407000D01*
X129055881Y-120581874D01*
X129098839Y-120701911D01*
X129027000Y-120773750D01*
X129027000Y-122373000D01*
X130626250Y-122373000D01*
X130785000Y-122214250D01*
X130787546Y-121415000D01*
X130877000Y-121415000D01*
X131095987Y-121368415D01*
X131301678Y-121280003D01*
X131340001Y-121253655D01*
X131340001Y-127946345D01*
X131301678Y-127919997D01*
X131095987Y-127831585D01*
X130877000Y-127785000D01*
X130788072Y-127785000D01*
X130788072Y-125450000D01*
X130775812Y-125325518D01*
X130739502Y-125205820D01*
X130680537Y-125095506D01*
X130601185Y-124998815D01*
X130504494Y-124919463D01*
X130394180Y-124860498D01*
X130274482Y-124824188D01*
X130150000Y-124811928D01*
X127650000Y-124811928D01*
X127525518Y-124824188D01*
X127405820Y-124860498D01*
X127295506Y-124919463D01*
X127198815Y-124998815D01*
X127119463Y-125095506D01*
X127060498Y-125205820D01*
X127024188Y-125325518D01*
X127011928Y-125450000D01*
X127011928Y-125615000D01*
X119260804Y-125615000D01*
X119217205Y-125509744D01*
X119103937Y-125340226D01*
X118959774Y-125196063D01*
X118790256Y-125082795D01*
X118601898Y-125004774D01*
X118585004Y-125001414D01*
X118585004Y-120563464D01*
X118617209Y-120515266D01*
X118695230Y-120326908D01*
X118735004Y-120126949D01*
X118735004Y-120060000D01*
X119485183Y-120060000D01*
X119971831Y-120546649D01*
X119995916Y-120667729D01*
X120066398Y-120837889D01*
X120168722Y-120991028D01*
X120298956Y-121121262D01*
X120452095Y-121223586D01*
X120622255Y-121294068D01*
X120641986Y-121297993D01*
X120627271Y-121300920D01*
X120457111Y-121371402D01*
X120303972Y-121473726D01*
X120173738Y-121603960D01*
X120071414Y-121757099D01*
X120000932Y-121927259D01*
X119965000Y-122107899D01*
X119965000Y-122292077D01*
X120000932Y-122472717D01*
X120071414Y-122642877D01*
X120173738Y-122796016D01*
X120303972Y-122926250D01*
X120457111Y-123028574D01*
X120627271Y-123099056D01*
X120807911Y-123134988D01*
X120992089Y-123134988D01*
X121172729Y-123099056D01*
X121342889Y-123028574D01*
X121445535Y-122959988D01*
X122802494Y-122959988D01*
X122843018Y-123000513D01*
X122867103Y-123121593D01*
X122937585Y-123291753D01*
X123039909Y-123444892D01*
X123170143Y-123575126D01*
X123323282Y-123677450D01*
X123493442Y-123747932D01*
X123674082Y-123783864D01*
X123858260Y-123783864D01*
X124038900Y-123747932D01*
X124209060Y-123677450D01*
X124362199Y-123575126D01*
X124492433Y-123444892D01*
X124594757Y-123291753D01*
X124665239Y-123121593D01*
X124701171Y-122940953D01*
X124701171Y-122756775D01*
X124665239Y-122576135D01*
X124594757Y-122405975D01*
X124492433Y-122252836D01*
X124362199Y-122122602D01*
X124209060Y-122020278D01*
X124038900Y-121949796D01*
X123917820Y-121925711D01*
X123681098Y-121688990D01*
X123657296Y-121659987D01*
X123541571Y-121565014D01*
X123409542Y-121494442D01*
X123266281Y-121450985D01*
X123154628Y-121439988D01*
X123154617Y-121439988D01*
X123117295Y-121436312D01*
X123079973Y-121439988D01*
X121445535Y-121439988D01*
X121342889Y-121371402D01*
X121172729Y-121300920D01*
X121152998Y-121296995D01*
X121167713Y-121294068D01*
X121337873Y-121223586D01*
X121491012Y-121121262D01*
X121621246Y-120991028D01*
X121723570Y-120837889D01*
X121794052Y-120667729D01*
X121829984Y-120487089D01*
X121829984Y-120302911D01*
X121794052Y-120122271D01*
X121723570Y-119952111D01*
X121621246Y-119798972D01*
X121491012Y-119668738D01*
X121337873Y-119566414D01*
X121167713Y-119495932D01*
X121046633Y-119471847D01*
X120363788Y-118789002D01*
X120339985Y-118759999D01*
X120224260Y-118665026D01*
X120092231Y-118594454D01*
X119948970Y-118550997D01*
X119837317Y-118540000D01*
X119837306Y-118540000D01*
X119799984Y-118536324D01*
X119762662Y-118540000D01*
X119740868Y-118540000D01*
X121056776Y-117224092D01*
X121201898Y-117195226D01*
X121390256Y-117117205D01*
X121559774Y-117003937D01*
X121703937Y-116859774D01*
X121817205Y-116690256D01*
X121895226Y-116501898D01*
X121935000Y-116301939D01*
X121935000Y-116098061D01*
X121922456Y-116035000D01*
X122972596Y-116035000D01*
X123127271Y-116099068D01*
X123307911Y-116135000D01*
X123492089Y-116135000D01*
X123672729Y-116099068D01*
X123842889Y-116028586D01*
X123996028Y-115926262D01*
X124126262Y-115796028D01*
X124228586Y-115642889D01*
X124299068Y-115472729D01*
X124335000Y-115292089D01*
X124335000Y-115107911D01*
X124299068Y-114927271D01*
X124228586Y-114757111D01*
X124126262Y-114603972D01*
X123996028Y-114473738D01*
X123842889Y-114371414D01*
X123672729Y-114300932D01*
X123492089Y-114265000D01*
X123307911Y-114265000D01*
X123127271Y-114300932D01*
X122972596Y-114365000D01*
X116854977Y-114365000D01*
X116942889Y-114328586D01*
X117096028Y-114226262D01*
X117226262Y-114096028D01*
X117328586Y-113942889D01*
X117399068Y-113772729D01*
X117435000Y-113592089D01*
X117435000Y-113407911D01*
X117399068Y-113227271D01*
X117328586Y-113057111D01*
X117226262Y-112903972D01*
X117096028Y-112773738D01*
X116942889Y-112671414D01*
X116772729Y-112600932D01*
X116592089Y-112565000D01*
X116407911Y-112565000D01*
X116227271Y-112600932D01*
X116072596Y-112665000D01*
X113516008Y-112665000D01*
X113474989Y-112660960D01*
X113433971Y-112665000D01*
X113311301Y-112677082D01*
X113153903Y-112724828D01*
X113008844Y-112802364D01*
X112881699Y-112906709D01*
X112855549Y-112938573D01*
X108011788Y-117782335D01*
X107857111Y-117846404D01*
X107703972Y-117948728D01*
X107573738Y-118078962D01*
X107471414Y-118232101D01*
X107400932Y-118402261D01*
X107365000Y-118582901D01*
X107365000Y-118767079D01*
X107400932Y-118947719D01*
X107471414Y-119117879D01*
X107573738Y-119271018D01*
X107703972Y-119401252D01*
X107857111Y-119503576D01*
X108027271Y-119574058D01*
X108207911Y-119609990D01*
X108392089Y-119609990D01*
X108572729Y-119574058D01*
X108742889Y-119503576D01*
X108896028Y-119401252D01*
X109026262Y-119271018D01*
X109128586Y-119117879D01*
X109192655Y-118963202D01*
X110797978Y-117357879D01*
X110800932Y-117372729D01*
X110871414Y-117542889D01*
X110973738Y-117696028D01*
X111103972Y-117826262D01*
X111257111Y-117928586D01*
X111427271Y-117999068D01*
X111607911Y-118035000D01*
X111792089Y-118035000D01*
X111972729Y-117999068D01*
X112142889Y-117928586D01*
X112161691Y-117916023D01*
X112073742Y-118003972D01*
X111971418Y-118157111D01*
X111900936Y-118327271D01*
X111865004Y-118507911D01*
X111865004Y-118692089D01*
X111900936Y-118872729D01*
X111971418Y-119042889D01*
X112073742Y-119196028D01*
X112203976Y-119326262D01*
X112357115Y-119428586D01*
X112527275Y-119499068D01*
X112707915Y-119535000D01*
X112892093Y-119535000D01*
X113072733Y-119499068D01*
X113227408Y-119435000D01*
X115990197Y-119435000D01*
X112489004Y-122936195D01*
X112460006Y-122959993D01*
X112436208Y-122988991D01*
X112436207Y-122988992D01*
X112365032Y-123075718D01*
X112294460Y-123207748D01*
X112288769Y-123226510D01*
X112269826Y-123288957D01*
X111508112Y-122527244D01*
X111534996Y-122392089D01*
X111534996Y-122207911D01*
X111499064Y-122027271D01*
X111428582Y-121857111D01*
X111326258Y-121703972D01*
X111196024Y-121573738D01*
X111042885Y-121471414D01*
X110872725Y-121400932D01*
X110692085Y-121365000D01*
X110507907Y-121365000D01*
X110327267Y-121400932D01*
X110157107Y-121471414D01*
X110003968Y-121573738D01*
X109873734Y-121703972D01*
X109771410Y-121857111D01*
X109700928Y-122027271D01*
X109664996Y-122207911D01*
X109664996Y-122392089D01*
X109700928Y-122572729D01*
X109764996Y-122727404D01*
X109764996Y-122758978D01*
X109760956Y-122799996D01*
X109764996Y-122841014D01*
X109764996Y-122841015D01*
X109777078Y-122963685D01*
X109824824Y-123121083D01*
X109825097Y-123121593D01*
X109901751Y-123265000D01*
X109902361Y-123266142D01*
X110006706Y-123393287D01*
X110038570Y-123419437D01*
X111380563Y-124761432D01*
X111406709Y-124793291D01*
X111533854Y-124897636D01*
X111678913Y-124975172D01*
X111836311Y-125022918D01*
X111958981Y-125035000D01*
X111958982Y-125035000D01*
X112000000Y-125039040D01*
X112041018Y-125035000D01*
X112572602Y-125035000D01*
X112727277Y-125099068D01*
X112907917Y-125135000D01*
X113092095Y-125135000D01*
X113272735Y-125099068D01*
X113442895Y-125028586D01*
X113596034Y-124926262D01*
X113726268Y-124796028D01*
X113828592Y-124642889D01*
X113899074Y-124472729D01*
X113935006Y-124292089D01*
X113935006Y-124107911D01*
X113899074Y-123927271D01*
X113828592Y-123757111D01*
X113824225Y-123750576D01*
X116815005Y-120759798D01*
X116815004Y-125356535D01*
X116810723Y-125400004D01*
X116815004Y-125443473D01*
X116815004Y-125443480D01*
X116826216Y-125557318D01*
X116827809Y-125573494D01*
X116840400Y-125615000D01*
X116878415Y-125740316D01*
X116960593Y-125894062D01*
X117071187Y-126028821D01*
X117104960Y-126056538D01*
X117293465Y-126245043D01*
X117304774Y-126301898D01*
X117382795Y-126490256D01*
X117496063Y-126659774D01*
X117640226Y-126803937D01*
X117809744Y-126917205D01*
X117998102Y-126995226D01*
X118054957Y-127006535D01*
X118143466Y-127095044D01*
X118171183Y-127128817D01*
X118305941Y-127239411D01*
X118459687Y-127321589D01*
X118626510Y-127372195D01*
X118756523Y-127385000D01*
X118756531Y-127385000D01*
X118800000Y-127389281D01*
X118843469Y-127385000D01*
X119511683Y-127385000D01*
X119508353Y-127387225D01*
X119357225Y-127538353D01*
X119238485Y-127716060D01*
X119156696Y-127913517D01*
X119115000Y-128123137D01*
X119115000Y-128336863D01*
X119156696Y-128546483D01*
X119238485Y-128743940D01*
X119357225Y-128921647D01*
X119508353Y-129072775D01*
X119686060Y-129191515D01*
X119883517Y-129273304D01*
X120093137Y-129315000D01*
X120306863Y-129315000D01*
X120516483Y-129273304D01*
X120713940Y-129191515D01*
X120891647Y-129072775D01*
X121042775Y-128921647D01*
X121161515Y-128743940D01*
X121243304Y-128546483D01*
X121285000Y-128336863D01*
X121285000Y-128123137D01*
X121243304Y-127913517D01*
X121161515Y-127716060D01*
X121042775Y-127538353D01*
X120891647Y-127387225D01*
X120888317Y-127385000D01*
X125842078Y-127385000D01*
X125840000Y-127395448D01*
X125840000Y-127584552D01*
X125876892Y-127770022D01*
X125883096Y-127785000D01*
X125593000Y-127785000D01*
X125374013Y-127831585D01*
X125168322Y-127919997D01*
X124983831Y-128046839D01*
X124827631Y-128207236D01*
X124705724Y-128395024D01*
X124625881Y-128618126D01*
X124752046Y-128793000D01*
X126143000Y-128793000D01*
X126143000Y-128773000D01*
X126397000Y-128773000D01*
X126397000Y-128793000D01*
X127787954Y-128793000D01*
X127914119Y-128618126D01*
X127903363Y-128588072D01*
X129066637Y-128588072D01*
X129055881Y-128618126D01*
X129182046Y-128793000D01*
X130323000Y-128793000D01*
X130323000Y-128773000D01*
X130577000Y-128773000D01*
X130577000Y-128793000D01*
X130597000Y-128793000D01*
X130597000Y-129047000D01*
X130577000Y-129047000D01*
X130577000Y-129067000D01*
X130323000Y-129067000D01*
X130323000Y-129047000D01*
X129182046Y-129047000D01*
X129055881Y-129221874D01*
X129098156Y-129340000D01*
X127871844Y-129340000D01*
X127914119Y-129221874D01*
X127787954Y-129047000D01*
X126397000Y-129047000D01*
X126397000Y-129067000D01*
X126143000Y-129067000D01*
X126143000Y-129047000D01*
X124752046Y-129047000D01*
X124625881Y-129221874D01*
X124668156Y-129340000D01*
X101824216Y-129340000D01*
X101819082Y-128123137D01*
X116115000Y-128123137D01*
X116115000Y-128336863D01*
X116156696Y-128546483D01*
X116238485Y-128743940D01*
X116357225Y-128921647D01*
X116508353Y-129072775D01*
X116686060Y-129191515D01*
X116883517Y-129273304D01*
X117093137Y-129315000D01*
X117306863Y-129315000D01*
X117516483Y-129273304D01*
X117713940Y-129191515D01*
X117891647Y-129072775D01*
X118042775Y-128921647D01*
X118161515Y-128743940D01*
X118243304Y-128546483D01*
X118285000Y-128336863D01*
X118285000Y-128123137D01*
X118243304Y-127913517D01*
X118161515Y-127716060D01*
X118042775Y-127538353D01*
X117891647Y-127387225D01*
X117713940Y-127268485D01*
X117516483Y-127186696D01*
X117306863Y-127145000D01*
X117093137Y-127145000D01*
X116883517Y-127186696D01*
X116686060Y-127268485D01*
X116508353Y-127387225D01*
X116357225Y-127538353D01*
X116238485Y-127716060D01*
X116156696Y-127913517D01*
X116115000Y-128123137D01*
X101819082Y-128123137D01*
X101798765Y-123307911D01*
X106265000Y-123307911D01*
X106265000Y-123492089D01*
X106300932Y-123672729D01*
X106315001Y-123706695D01*
X106315000Y-125793307D01*
X106300932Y-125827271D01*
X106265000Y-126007911D01*
X106265000Y-126192089D01*
X106300932Y-126372729D01*
X106371414Y-126542889D01*
X106473738Y-126696028D01*
X106603972Y-126826262D01*
X106757111Y-126928586D01*
X106927271Y-126999068D01*
X107107911Y-127035000D01*
X107292089Y-127035000D01*
X107472729Y-126999068D01*
X107642889Y-126928586D01*
X107796028Y-126826262D01*
X107926262Y-126696028D01*
X108028586Y-126542889D01*
X108099068Y-126372729D01*
X108135000Y-126192089D01*
X108135000Y-126007911D01*
X108099068Y-125827271D01*
X108085000Y-125793308D01*
X108085000Y-123706692D01*
X108099068Y-123672729D01*
X108135000Y-123492089D01*
X108135000Y-123307911D01*
X108099068Y-123127271D01*
X108028586Y-122957111D01*
X107926262Y-122803972D01*
X107796028Y-122673738D01*
X107642889Y-122571414D01*
X107472729Y-122500932D01*
X107292089Y-122465000D01*
X107107911Y-122465000D01*
X106927271Y-122500932D01*
X106757111Y-122571414D01*
X106603972Y-122673738D01*
X106473738Y-122803972D01*
X106371414Y-122957111D01*
X106300932Y-123127271D01*
X106265000Y-123307911D01*
X101798765Y-123307911D01*
X101726999Y-106299464D01*
X101724454Y-106274698D01*
X101717127Y-106250905D01*
X101705298Y-106228998D01*
X101689423Y-106209819D01*
X101670111Y-106194107D01*
X101648105Y-106182463D01*
X101624251Y-106175337D01*
X101600000Y-106173000D01*
X100427000Y-106173000D01*
X100427000Y-103461917D01*
X100509744Y-103517205D01*
X100698102Y-103595226D01*
X100843225Y-103624093D01*
X102680559Y-105461427D01*
X102706709Y-105493291D01*
X102831928Y-105596055D01*
X102833854Y-105597636D01*
X102978913Y-105675172D01*
X103136311Y-105722918D01*
X103299999Y-105739040D01*
X103341018Y-105735000D01*
X105039144Y-105735000D01*
X105000924Y-105827271D01*
X104964992Y-106007911D01*
X104964992Y-106192089D01*
X105000924Y-106372729D01*
X105064992Y-106527404D01*
X105064993Y-117372599D01*
X105000922Y-117527281D01*
X104964990Y-117707921D01*
X104964990Y-117892099D01*
X105000922Y-118072739D01*
X105071404Y-118242899D01*
X105173728Y-118396038D01*
X105303962Y-118526272D01*
X105457101Y-118628596D01*
X105627261Y-118699078D01*
X105807901Y-118735010D01*
X105992079Y-118735010D01*
X106172719Y-118699078D01*
X106342879Y-118628596D01*
X106496018Y-118526272D01*
X106626252Y-118396038D01*
X106728576Y-118242899D01*
X106799058Y-118072739D01*
X106834990Y-117892099D01*
X106834990Y-117707921D01*
X106799058Y-117527281D01*
X106734992Y-117372611D01*
X106734992Y-113107911D01*
X108465000Y-113107911D01*
X108465000Y-113292089D01*
X108500932Y-113472729D01*
X108571414Y-113642889D01*
X108673738Y-113796028D01*
X108803972Y-113926262D01*
X108957111Y-114028586D01*
X109127271Y-114099068D01*
X109307911Y-114135000D01*
X109492089Y-114135000D01*
X109672729Y-114099068D01*
X109827404Y-114035000D01*
X110658982Y-114035000D01*
X110700000Y-114039040D01*
X110741018Y-114035000D01*
X110741019Y-114035000D01*
X110863689Y-114022918D01*
X111021087Y-113975172D01*
X111166146Y-113897636D01*
X111293291Y-113793291D01*
X111319446Y-113761421D01*
X112188214Y-112892654D01*
X112342889Y-112828586D01*
X112496028Y-112726262D01*
X112626262Y-112596028D01*
X112728586Y-112442889D01*
X112799068Y-112272729D01*
X112835000Y-112092089D01*
X112835000Y-111907911D01*
X112799068Y-111727271D01*
X112728586Y-111557111D01*
X112626262Y-111403972D01*
X112496028Y-111273738D01*
X112342889Y-111171414D01*
X112172729Y-111100932D01*
X111992089Y-111065000D01*
X111807911Y-111065000D01*
X111627271Y-111100932D01*
X111457111Y-111171414D01*
X111303972Y-111273738D01*
X111173738Y-111403972D01*
X111071414Y-111557111D01*
X111007346Y-111711786D01*
X110354133Y-112365000D01*
X109827404Y-112365000D01*
X109672729Y-112300932D01*
X109492089Y-112265000D01*
X109307911Y-112265000D01*
X109127271Y-112300932D01*
X108957111Y-112371414D01*
X108803972Y-112473738D01*
X108673738Y-112603972D01*
X108571414Y-112757111D01*
X108500932Y-112927271D01*
X108465000Y-113107911D01*
X106734992Y-113107911D01*
X106734992Y-106527404D01*
X106799060Y-106372729D01*
X106834992Y-106192089D01*
X106834992Y-106007911D01*
X106799060Y-105827271D01*
X106760840Y-105735000D01*
X114554141Y-105735000D01*
X115375908Y-106556767D01*
X115404774Y-106701890D01*
X115482795Y-106890248D01*
X115596063Y-107059766D01*
X115740226Y-107203929D01*
X115909744Y-107317197D01*
X116098102Y-107395218D01*
X116298061Y-107434992D01*
X116501939Y-107434992D01*
X116701898Y-107395218D01*
X116890256Y-107317197D01*
X117059774Y-107203929D01*
X117203937Y-107059766D01*
X117317205Y-106890248D01*
X117395226Y-106701890D01*
X117435000Y-106501931D01*
X117435000Y-106298053D01*
X117395226Y-106098094D01*
X117317205Y-105909736D01*
X117243879Y-105799996D01*
X117317205Y-105690256D01*
X117395226Y-105501898D01*
X117435000Y-105301939D01*
X117435000Y-105098061D01*
X117395226Y-104898102D01*
X117317205Y-104709744D01*
X117203937Y-104540226D01*
X117059774Y-104396063D01*
X116890256Y-104282795D01*
X116701898Y-104204774D01*
X116556776Y-104175908D01*
X116019445Y-103638578D01*
X115993291Y-103606709D01*
X115866146Y-103502364D01*
X115721087Y-103424828D01*
X115563689Y-103377082D01*
X115441019Y-103365000D01*
X115441018Y-103365000D01*
X115400000Y-103360960D01*
X115358982Y-103365000D01*
X104445868Y-103365000D01*
X102324093Y-101243225D01*
X102295226Y-101098102D01*
X102217205Y-100909744D01*
X102103937Y-100740226D01*
X101988711Y-100625000D01*
X115786928Y-100625000D01*
X115786928Y-101975000D01*
X115799188Y-102099482D01*
X115835498Y-102219180D01*
X115894463Y-102329494D01*
X115973815Y-102426185D01*
X116070506Y-102505537D01*
X116180820Y-102564502D01*
X116300518Y-102600812D01*
X116380832Y-102608722D01*
X116443468Y-102685044D01*
X116443471Y-102685047D01*
X116471184Y-102718815D01*
X116504952Y-102746528D01*
X128565001Y-114806578D01*
X128565002Y-115141421D01*
X125341414Y-118365010D01*
X124993459Y-118365010D01*
X124949990Y-118360729D01*
X124906521Y-118365010D01*
X124906513Y-118365010D01*
X124791296Y-118376358D01*
X124776499Y-118377815D01*
X124725893Y-118393167D01*
X124609677Y-118428421D01*
X124455931Y-118510599D01*
X124321173Y-118621193D01*
X124293458Y-118654964D01*
X124254957Y-118693465D01*
X124198102Y-118704774D01*
X124009744Y-118782795D01*
X123840226Y-118896063D01*
X123696063Y-119040226D01*
X123582795Y-119209744D01*
X123504774Y-119398102D01*
X123465000Y-119598061D01*
X123465000Y-119801939D01*
X123504774Y-120001898D01*
X123582795Y-120190256D01*
X123696063Y-120359774D01*
X123840226Y-120503937D01*
X124009744Y-120617205D01*
X124198102Y-120695226D01*
X124398061Y-120735000D01*
X124601939Y-120735000D01*
X124675448Y-120720378D01*
X124705724Y-120804976D01*
X124827631Y-120992764D01*
X124983831Y-121153161D01*
X125168322Y-121280003D01*
X125374013Y-121368415D01*
X125593000Y-121415000D01*
X125883096Y-121415000D01*
X125876892Y-121429978D01*
X125840000Y-121615448D01*
X125840000Y-121804552D01*
X125876892Y-121990022D01*
X125949259Y-122164731D01*
X126054319Y-122321964D01*
X126188036Y-122455681D01*
X126345269Y-122560741D01*
X126519978Y-122633108D01*
X126705448Y-122670000D01*
X126894552Y-122670000D01*
X127080022Y-122633108D01*
X127094763Y-122627002D01*
X127173748Y-122627002D01*
X127015000Y-122785750D01*
X127011928Y-123750000D01*
X127024188Y-123874482D01*
X127060498Y-123994180D01*
X127119463Y-124104494D01*
X127198815Y-124201185D01*
X127295506Y-124280537D01*
X127405820Y-124339502D01*
X127525518Y-124375812D01*
X127650000Y-124388072D01*
X128614250Y-124385000D01*
X128773000Y-124226250D01*
X128773000Y-122627000D01*
X129027000Y-122627000D01*
X129027000Y-124226250D01*
X129185750Y-124385000D01*
X130150000Y-124388072D01*
X130274482Y-124375812D01*
X130394180Y-124339502D01*
X130504494Y-124280537D01*
X130601185Y-124201185D01*
X130680537Y-124104494D01*
X130739502Y-123994180D01*
X130775812Y-123874482D01*
X130788072Y-123750000D01*
X130785000Y-122785750D01*
X130626250Y-122627000D01*
X129027000Y-122627000D01*
X128773000Y-122627000D01*
X128753000Y-122627000D01*
X128753000Y-122373000D01*
X128773000Y-122373000D01*
X128773000Y-120773750D01*
X128614250Y-120615000D01*
X127903075Y-120612734D01*
X127914119Y-120581874D01*
X127787954Y-120407000D01*
X126397000Y-120407000D01*
X126397000Y-120427000D01*
X126143000Y-120427000D01*
X126143000Y-120407000D01*
X126123000Y-120407000D01*
X126123000Y-120153000D01*
X126143000Y-120153000D01*
X126143000Y-120133000D01*
X126397000Y-120133000D01*
X126397000Y-120153000D01*
X127787954Y-120153000D01*
X127914119Y-119978126D01*
X129055881Y-119978126D01*
X129182046Y-120153000D01*
X130323000Y-120153000D01*
X130323000Y-119145000D01*
X130023000Y-119145000D01*
X129804013Y-119191585D01*
X129598322Y-119279997D01*
X129413831Y-119406839D01*
X129257631Y-119567236D01*
X129135724Y-119755024D01*
X129055881Y-119978126D01*
X127914119Y-119978126D01*
X127834276Y-119755024D01*
X127712369Y-119567236D01*
X127556169Y-119406839D01*
X127371678Y-119279997D01*
X127165987Y-119191585D01*
X127043955Y-119165625D01*
X130045050Y-116164531D01*
X130078818Y-116136818D01*
X130110626Y-116098061D01*
X130189412Y-116002060D01*
X130271589Y-115848315D01*
X130271590Y-115848314D01*
X130322196Y-115681491D01*
X130335001Y-115551478D01*
X130335001Y-115551470D01*
X130339282Y-115508001D01*
X130335001Y-115464532D01*
X130335001Y-114483468D01*
X130339282Y-114439999D01*
X130335001Y-114396530D01*
X130335001Y-114396522D01*
X130322196Y-114266509D01*
X130271590Y-114099686D01*
X130189412Y-113945940D01*
X130078818Y-113811182D01*
X130045052Y-113783471D01*
X118807153Y-102545573D01*
X118973000Y-102444224D01*
X118973000Y-101427000D01*
X118953000Y-101427000D01*
X118953000Y-101173000D01*
X118973000Y-101173000D01*
X118973000Y-100155776D01*
X119227000Y-100155776D01*
X119227000Y-101173000D01*
X119247000Y-101173000D01*
X119247000Y-101427000D01*
X119227000Y-101427000D01*
X119227000Y-102444224D01*
X119429400Y-102567910D01*
X119530528Y-102537238D01*
X119763629Y-102429473D01*
X119971227Y-102278303D01*
X120093319Y-102145940D01*
X120264923Y-102317544D01*
X120479482Y-102460907D01*
X120717887Y-102559658D01*
X120970976Y-102610000D01*
X121229024Y-102610000D01*
X121482113Y-102559658D01*
X121720518Y-102460907D01*
X121935077Y-102317544D01*
X122100000Y-102152621D01*
X122264923Y-102317544D01*
X122479482Y-102460907D01*
X122717887Y-102559658D01*
X122970976Y-102610000D01*
X123229024Y-102610000D01*
X123482113Y-102559658D01*
X123720518Y-102460907D01*
X123935077Y-102317544D01*
X124100000Y-102152621D01*
X124264923Y-102317544D01*
X124479482Y-102460907D01*
X124717887Y-102559658D01*
X124970976Y-102610000D01*
X125229024Y-102610000D01*
X125482113Y-102559658D01*
X125720518Y-102460907D01*
X125935077Y-102317544D01*
X126100000Y-102152621D01*
X126264923Y-102317544D01*
X126479482Y-102460907D01*
X126717887Y-102559658D01*
X126970976Y-102610000D01*
X127229024Y-102610000D01*
X127482113Y-102559658D01*
X127720518Y-102460907D01*
X127935077Y-102317544D01*
X128117544Y-102135077D01*
X128260907Y-101920518D01*
X128359658Y-101682113D01*
X128410000Y-101429024D01*
X128410000Y-101170976D01*
X128359658Y-100917887D01*
X128260907Y-100679482D01*
X128117544Y-100464923D01*
X127935077Y-100282456D01*
X127720518Y-100139093D01*
X127482113Y-100040342D01*
X127229024Y-99990000D01*
X126970976Y-99990000D01*
X126717887Y-100040342D01*
X126479482Y-100139093D01*
X126264923Y-100282456D01*
X126100000Y-100447379D01*
X125935077Y-100282456D01*
X125720518Y-100139093D01*
X125482113Y-100040342D01*
X125229024Y-99990000D01*
X124970976Y-99990000D01*
X124717887Y-100040342D01*
X124479482Y-100139093D01*
X124264923Y-100282456D01*
X124100000Y-100447379D01*
X123935077Y-100282456D01*
X123720518Y-100139093D01*
X123482113Y-100040342D01*
X123229024Y-99990000D01*
X122970976Y-99990000D01*
X122717887Y-100040342D01*
X122479482Y-100139093D01*
X122264923Y-100282456D01*
X122100000Y-100447379D01*
X121935077Y-100282456D01*
X121720518Y-100139093D01*
X121482113Y-100040342D01*
X121229024Y-99990000D01*
X120970976Y-99990000D01*
X120717887Y-100040342D01*
X120479482Y-100139093D01*
X120264923Y-100282456D01*
X120093319Y-100454060D01*
X119971227Y-100321697D01*
X119763629Y-100170527D01*
X119530528Y-100062762D01*
X119429400Y-100032090D01*
X119227000Y-100155776D01*
X118973000Y-100155776D01*
X118770600Y-100032090D01*
X118669472Y-100062762D01*
X118436371Y-100170527D01*
X118303119Y-100267559D01*
X118226185Y-100173815D01*
X118129494Y-100094463D01*
X118019180Y-100035498D01*
X117899482Y-99999188D01*
X117775000Y-99986928D01*
X116425000Y-99986928D01*
X116300518Y-99999188D01*
X116180820Y-100035498D01*
X116070506Y-100094463D01*
X115973815Y-100173815D01*
X115894463Y-100270506D01*
X115835498Y-100380820D01*
X115799188Y-100500518D01*
X115786928Y-100625000D01*
X101988711Y-100625000D01*
X101959774Y-100596063D01*
X101790256Y-100482795D01*
X101601898Y-100404774D01*
X101401939Y-100365000D01*
X101198061Y-100365000D01*
X100998102Y-100404774D01*
X100809744Y-100482795D01*
X100640226Y-100596063D01*
X100496063Y-100740226D01*
X100427000Y-100843586D01*
X100427000Y-99860000D01*
X131340000Y-99860000D01*
X131340001Y-119306345D01*
G37*
%TD.AperFunction*%
%TD*%
D22*
X107200000Y-126100000D03*
X107200000Y-123400000D03*
X105899992Y-106100000D03*
X105899990Y-117800010D03*
X91000000Y-120600000D03*
X90800007Y-107447087D03*
X91500000Y-116400000D03*
X91516419Y-107803134D03*
X123766171Y-122848864D03*
X120900000Y-122199988D03*
D23*
X124500000Y-119700000D03*
X118300000Y-126000000D03*
X117700004Y-120025010D03*
D22*
X110599996Y-122300000D03*
X113000006Y-124200000D03*
X120894984Y-120395000D03*
X112800004Y-118600000D03*
D23*
X120900000Y-116200000D03*
X101000000Y-102600000D03*
X116400000Y-106399992D03*
X116400000Y-105200000D03*
X101300000Y-101400000D03*
D22*
X116500000Y-113500000D03*
X108300000Y-118674990D03*
X109400000Y-113200000D03*
X111900000Y-112000000D03*
X111700000Y-117100000D03*
X123400000Y-115200000D03*
X121100000Y-104700000D03*
X120900000Y-123700000D03*
X120788388Y-121385999D03*
X110598744Y-126361759D03*
X103400000Y-127800002D03*
X107300000Y-118800000D03*
X111400000Y-119300002D03*
X105100000Y-100400000D03*
X108200000Y-103200000D03*
X102900000Y-109900000D03*
X104400000Y-114100000D03*
X100100000Y-108600000D03*
X92300000Y-108300000D03*
X92300000Y-113400000D03*
D23*
X95100000Y-119475000D03*
X95100000Y-126475000D03*
X127100000Y-101300000D03*
X125100000Y-101300000D03*
X123100000Y-101300000D03*
X121100000Y-101300000D03*
X119100000Y-101300000D03*
X117100000Y-101300000D03*
D24*
X126270000Y-120280000D03*
X126270000Y-128920000D03*
D23*
X126800000Y-127490000D03*
D25*
X130450000Y-128920000D03*
D23*
X126800000Y-121710000D03*
D25*
X130450000Y-120280000D03*
D23*
X120200000Y-128230000D03*
X117200000Y-128230000D03*
M02*
